<svg xmlns="http://www.w3.org/2000/svg" width="338.795" height="340.261" xmlns:v="https://vecta.io/nano"><defs><clipPath id="A"><path d="M298.146 391.11c-1.706 1.115-2.187 3.4-1.077 5.108 1.106 1.712 3.4 2.19 5.108 1.083 1.706-1.12 2.186-3.4 1.077-5.108-1.11-1.712-3.404-2.192-5.108-1.083m26.258-15.633c1.452-1.428 1.464-3.767.023-5.222-1.423-1.45-3.755-1.464-5.213-.038a3.71 3.71 0 0 0-.038 5.228c1.428 1.446 3.773 1.466 5.228.032m16.816-24.7c1.162-1.683.72-3.978-.972-5.13-1.677-1.153-3.972-.717-5.122.957-1.156 1.695-.72 4 .954 5.137 1.686 1.15 3.995.726 5.14-.963m10.514-34.69c-1.885-.78-4.045.12-4.815 2-.776 1.897.117 4.05 2.002 4.82 1.888.78 4.042-.117 4.824-2.005a3.69 3.69 0 0 0-2.011-4.815m.705-27.23c-.392 2.005.925 3.937 2.93 4.317a3.69 3.69 0 0 0 4.317-2.933c.392-2-.925-3.934-2.93-4.314-1.996-.39-3.934.922-4.317 2.93m3.018-34.84a3.68 3.68 0 0 0-3.609 3.767c.032 2.043 1.73 3.653 3.767 3.62 2.03-.047 3.644-1.733 3.615-3.773-.044-2.037-1.742-3.66-3.773-3.615m-9.165-21.89c.398 2 2.34 3.3 4.344 2.892a3.69 3.69 0 1 0-1.464-7.241c-2 .4-3.293 2.345-2.88 4.35m-5.34-22.465a3.69 3.69 0 0 0 2.058-4.792c-.752-1.897-2.9-2.816-4.794-2.07-1.885.752-2.8 2.9-2.07 4.797.758 1.894 2.907 2.816 4.806 2.064m-16.538-26.46c1.704-1.127 2.166-3.422 1.045-5.114-1.124-1.706-3.422-2.172-5.12-1.048s-2.163 3.42-1.036 5.116a3.69 3.69 0 0 0 5.111 1.045m-24.78-26.083a3.68 3.68 0 0 0-.061 5.213c1.43 1.466 3.77 1.5 5.22.067a3.7 3.7 0 0 0 .061-5.225c-1.423-1.464-3.755-1.484-5.22-.056m-4.212 256.154a2.95 2.95 0 0 0-.849 4.092c.893 1.364 2.725 1.745 4.08.85 1.384-.9 1.753-2.725.855-4.083-.884-1.367-2.72-1.747-4.086-.858m25.316-20.565c-1.168 1.142-1.168 3.01-.023 4.174 1.14 1.16 3.02 1.174 4.18.032s1.168-3.015.03-4.18c-1.144-1.16-3.02-1.174-4.186-.026m17.975-21.145a2.96 2.96 0 0 0 .676 4.118c1.323.954 3.182.653 4.124-.667.954-1.323.66-3.173-.676-4.12-1.33-.954-3.158-.644-4.124.67m20.577-30.83c-1.496-.66-3.237.015-3.902 1.496a2.96 2.96 0 0 0 1.513 3.896c1.484.673 3.226-.01 3.884-1.493.67-1.496-.006-3.234-1.496-3.9m10.493-35.856c-1.598-.316-3.155.73-3.477 2.333-.307 1.592.74 3.14 2.34 3.463 1.595.313 3.152-.726 3.466-2.33a2.95 2.95 0 0 0-2.327-3.466m2.403-33.942c-1.633.015-2.933 1.35-2.93 2.983.023 1.63 1.364 2.948 2.99 2.924 1.636-.018 2.948-1.355 2.927-2.983-.012-1.633-1.358-2.942-2.99-2.924m-3.056-26.95a2.95 2.95 0 0 0 2.277-3.498c-.325-1.595-1.906-2.617-3.5-2.277-1.6.334-2.61 1.897-2.27 3.498a2.94 2.94 0 0 0 3.495 2.277m-10.906-34.928c-1.507.626-2.216 2.35-1.595 3.858.618 1.52 2.342 2.227 3.855 1.607 1.507-.626 2.222-2.356 1.6-3.855a2.96 2.96 0 0 0-3.861-1.61m-12.484-23.285c1.35-.896 1.718-2.734.825-4.09-.9-1.364-2.734-1.736-4.098-.834a2.95 2.95 0 0 0-.825 4.098c.893 1.36 2.725 1.733 4.098.825m-19.277-24.605a2.96 2.96 0 0 0 .056-4.174c-1.144-1.17-3.02-1.19-4.186-.056-1.17 1.142-1.188 3.006-.05 4.177s3.01 1.194 4.18.053m-24.078-20.987c.94-1.338.6-3.18-.74-4.1s-3.17-.6-4.107.746c-.94 1.34-.603 3.18.746 4.1a2.94 2.94 0 0 0 4.101-.746m-26.826 245.38c-2.672 1.71-3.454 5.277-1.742 7.973 1.712 2.667 5.28 3.45 7.96 1.745 2.678-1.718 3.47-5.28 1.747-7.962a5.77 5.77 0 0 0-7.964-1.756m20.486-16.342a5.79 5.79 0 0 0-.117 8.161 5.79 5.79 0 0 0 8.155.12c2.283-2.222 2.34-5.866.117-8.155-2.216-2.29-5.86-2.345-8.155-.126m26.794-14.3c1.777-2.64 1.074-6.226-1.56-8.003a5.75 5.75 0 0 0-8 1.56c-1.786 2.634-1.083 6.21 1.563 8.003 2.634 1.77 6.21 1.07 7.997-1.56m9.68-31.144c-2.924-1.256-6.32.102-7.563 3.035-1.238 2.927.11 6.314 3.047 7.566 2.924 1.247 6.302-.11 7.558-3.035 1.244-2.93-.105-6.317-3.04-7.566m4.475-14.492c3.11.653 6.167-1.344 6.826-4.45.647-3.12-1.34-6.176-4.46-6.832s-6.167 1.338-6.826 4.455c-.653 3.114 1.335 6.16 4.46 6.826m3.946-40.332c-3.188.015-5.755 2.617-5.72 5.8a5.75 5.75 0 0 0 5.798 5.722c3.185-.026 5.746-2.62 5.737-5.804a5.78 5.78 0 0 0-5.816-5.719m-1.753-15.5a5.79 5.79 0 0 0 4.461-6.823c-.653-3.117-3.717-5.114-6.838-4.46a5.77 5.77 0 0 0-4.461 6.817 5.79 5.79 0 0 0 6.838 4.467m-14.135-27.76c1.215 2.948 4.593 4.338 7.543 3.11 2.924-1.22 4.32-4.587 3.11-7.525-1.238-2.94-4.604-4.332-7.54-3.11a5.76 5.76 0 0 0-3.111 7.528m-2.713-18.47c2.672-1.715 3.454-5.275 1.756-7.956a5.79 5.79 0 0 0-7.979-1.742c-2.684 1.718-3.46 5.286-1.742 7.96a5.76 5.76 0 0 0 7.964 1.739m-17.02-23.033a5.78 5.78 0 0 0 .026-8.152c-2.242-2.26-5.89-2.27-8.16-.026-2.26 2.24-2.266 5.886-.032 8.137 2.242 2.268 5.89 2.286 8.166.04m-28.152-16.424c2.634 1.777 6.217 1.077 8.003-1.572 1.76-2.646 1.065-6.223-1.572-7.994-2.658-1.77-6.235-1.07-8.005 1.572s-1.07 6.226 1.575 7.994m-2.014 194.587c-2.825 1.824-3.612 5.585-1.79 8.398a6.07 6.07 0 0 0 8.386 1.788 6.07 6.07 0 0 0 1.794-8.389c-1.832-2.807-5.576-3.615-8.39-1.797m23.642-6.4a6.08 6.08 0 0 0 .143-8.585c-2.333-2.41-6.156-2.476-8.562-.152-2.427 2.327-2.494 6.17-.167 8.58s6.173 2.476 8.585.158m14.357-21.037a6.07 6.07 0 0 0-1.613-8.418c-2.772-1.88-6.54-1.16-8.42 1.6a6.06 6.06 0 0 0 1.607 8.427c2.77 1.88 6.536 1.156 8.427-1.62m1.033-18.007c3.07 1.33 6.64-.085 7.976-3.155a6.06 6.06 0 0 0-3.149-7.979c-3.068-1.338-6.65.073-7.967 3.144a6.08 6.08 0 0 0 3.141 7.991m12.888-25.454a6.07 6.07 0 0 0-4.56-7.259c-3.27-.743-6.52 1.288-7.262 4.56a6.06 6.06 0 0 0 4.56 7.265c3.267.746 6.513-1.3 7.262-4.566m-5.608-32.915c-3.346-.023-6.09 2.678-6.106 6.018a6.06 6.06 0 0 0 6.021 6.115 6.07 6.07 0 0 0 6.112-6.024 6.08 6.08 0 0 0-6.027-6.109m-3.63-11.483a6.06 6.06 0 0 0 4.756-7.139c-.66-3.275-3.852-5.41-7.133-4.756a6.07 6.07 0 0 0-4.762 7.136c.65 3.287 3.852 5.415 7.14 4.76M302.4 222.868c1.262 3.1 4.8 4.593 7.897 3.325 3.11-1.262 4.604-4.797 3.325-7.906-1.256-3.1-4.79-4.598-7.897-3.325a6.06 6.06 0 0 0-3.325 7.906m-3.852-16.336a6.05 6.05 0 0 0 1.721-8.398 6.07 6.07 0 0 0-8.401-1.727c-2.79 1.844-3.57 5.61-1.724 8.404 1.84 2.798 5.602 3.574 8.404 1.72m-15.48-17.09c2.388-2.353 2.4-6.194.047-8.573s-6.197-2.403-8.567-.05a6.07 6.07 0 0 0-.05 8.582 6.05 6.05 0 0 0 8.57.041M255.865 353.98c-3.32 2.116-4.28 6.52-2.16 9.832s6.524 4.285 9.84 2.166a7.13 7.13 0 0 0 2.154-9.841c-2.116-3.308-6.513-4.276-9.835-2.157m24.29-1.54a7.11 7.11 0 0 0 .056-10.072c-2.766-2.798-7.277-2.825-10.066-.056-2.804 2.77-2.82 7.27-.053 10.072 2.757 2.792 7.268 2.816 10.063.056m13.08-15.598c2.233-3.25 1.4-7.678-1.853-9.9s-7.672-1.393-9.893 1.856c-2.227 3.24-1.402 7.672 1.84 9.896 3.26 2.22 7.68 1.396 9.905-1.853m1.38-15.745c3.64 1.502 7.798-.228 9.305-3.867 1.5-3.635-.24-7.798-3.872-9.296-3.644-1.5-7.803.23-9.293 3.864-1.52 3.638.217 7.803 3.86 9.3m15.21-22.948a7.12 7.12 0 0 0-5.526-8.418 7.11 7.11 0 0 0-8.415 5.517c-.802 3.867 1.668 7.628 5.526 8.427 3.85.802 7.616-1.668 8.415-5.526m2.29-20.937a7.13 7.13 0 0 0-7.083-7.171c-3.922-.035-7.136 3.132-7.165 7.06-.026 3.934 3.132 7.142 7.054 7.177 3.95.032 7.15-3.135 7.195-7.066m-16.588-19.708a7.12 7.12 0 0 0 8.55 5.327c3.823-.896 6.202-4.718 5.313-8.547s-4.698-6.21-8.538-5.324c-3.83.887-6.223 4.72-5.324 8.544m-1.417-27.22c-3.606 1.56-5.28 5.74-3.71 9.35a7.12 7.12 0 0 0 9.358 3.723c3.606-1.557 5.275-5.743 3.717-9.36s-5.743-5.27-9.364-3.71m-11.614-5.576a7.12 7.12 0 0 0 9.841 2.099c3.296-2.148 4.24-6.557 2.102-9.852-2.143-3.305-6.562-4.244-9.844-2.096-3.3 2.146-4.247 6.55-2.1 9.85m-1.712-14.202a7.11 7.11 0 0 0-.018-10.069 7.12 7.12 0 0 0-10.069.02 7.13 7.13 0 0 0 .018 10.072c2.795 2.772 7.306 2.76 10.07-.023m-23.665-11.222c3.255 2.204 7.686 1.332 9.88-1.926a7.11 7.11 0 0 0-1.926-9.885c-3.264-2.198-7.695-1.332-9.873 1.926-2.204 3.26-1.344 7.69 1.92 9.885m-13.242 18.033a8.17 8.17 0 0 0 11.334-2.251 8.18 8.18 0 0 0-2.242-11.342c-3.76-2.508-8.825-1.5-11.348 2.26-2.51 3.75-1.5 8.825 2.257 11.333m29.69 5.506c-2.766-3.565-7.897-4.22-11.462-1.446-3.57 2.75-4.23 7.888-1.464 11.46a8.17 8.17 0 0 0 11.471 1.455c3.577-2.757 4.212-7.894 1.455-11.468m8.913 36.97a8.19 8.19 0 0 0 5.28-10.289 8.19 8.19 0 0 0-10.303-5.272c-4.297 1.387-6.647 6-5.25 10.29 1.373 4.294 5.983 6.656 10.274 5.27m-4.05 64.08c2.48-3.773 1.423-8.834-2.356-11.3a8.17 8.17 0 1 0-8.963 13.675c3.78 2.473 8.846 1.417 11.32-2.365m-.35-15.648a8.18 8.18 0 0 0 10.303-5.242c1.393-4.297-.954-8.907-5.242-10.306a8.18 8.18 0 0 0-10.312 5.248c-1.4 4.282.943 8.907 5.25 10.3m14.495-30.406a8.17 8.17 0 0 0-7.976-8.36c-4.513-.108-8.26 3.477-8.36 7.988s3.47 8.257 7.99 8.35c4.51.108 8.254-3.47 8.345-7.98m-33.04 66.848c3.55-2.807 4.148-7.938 1.346-11.49a8.19 8.19 0 0 0-11.486-1.338c-3.54 2.795-4.142 7.938-1.34 11.48a8.18 8.18 0 0 0 11.48 1.346M227 316.404a9.53 9.53 0 0 0-6.144 11.998c1.613 5.002 6.98 7.757 11.98 6.14a9.52 9.52 0 0 0 6.15-11.986c-1.613-5.014-6.975-7.763-11.986-6.153m27.48 1.648c3.92-3.53 4.227-9.557.705-13.456a9.54 9.54 0 0 0-13.461-.705c-3.902 3.533-4.215 9.554-.688 13.46 3.52 3.913 9.545 4.224 13.444.702m-.143-17.83c4.76 2.23 10.435.196 12.668-4.575a9.51 9.51 0 0 0-4.566-12.668c-4.76-2.242-10.435-.196-12.662 4.557-2.248 4.765-.2 10.44 4.56 12.686m5.9-41.74a9.51 9.51 0 0 0-9.621 9.428 9.52 9.52 0 0 0 9.419 9.621c5.27.05 9.583-4.162 9.627-9.428.053-5.266-4.168-9.58-9.425-9.62m-4.666-4.493c4.79-2.192 6.88-7.85 4.683-12.627a9.51 9.51 0 0 0-12.624-4.689c-4.783 2.19-6.88 7.844-4.695 12.62 2.2 4.79 7.853 6.893 12.636 4.695m-14.02-19.348c3.4-4.016 2.898-10.028-1.115-13.423a9.52 9.52 0 0 0-13.426 1.118 9.51 9.51 0 0 0 1.121 13.423c4.007 3.404 10.022 2.9 13.42-1.118"/></clipPath><linearGradient id="B" x1="222.078" y1="180.076" x2="366.263" y2="180.076" gradientUnits="userSpaceOnUse"><stop offset="0" stop-color="#e95d0f"/><stop offset=".806" stop-color="#e95d0f" stop-opacity=".098"/><stop offset="1" stop-color="#e95d0f" stop-opacity="0"/></linearGradient></defs><path transform="matrix(.976489 0 0 .976489 -30.089841 -99.493141)" clip-path="url(#A)" d="M216.938 132.877h154.784v288.03H216.938z" fill="url(#B)"/><g fill="#e95d0f"><path d="M244.786 42.666a3.61 3.61 0 0 1-5.019.906 3.62 3.62 0 0 1-.917-5.013c1.152-1.643 3.396-2.046 5.025-.915a3.6 3.6 0 0 1 .912 5.022M185.835 118.5a9.3 9.3 0 0 1-11.467 6.454c-4.953-1.378-7.834-6.514-6.45-11.467 1.366-4.945 6.5-7.832 11.46-6.45 4.942 1.378 7.837 6.517 6.457 11.464m-21.59 104.595a9.31 9.31 0 0 1 10.104-8.429c5.128.46 8.892 4.982 8.43 10.104a9.29 9.29 0 0 1-10.098 8.417 9.3 9.3 0 0 1-8.435-10.092m-20.07-6.428c2.392-4.547 8.03-6.282 12.573-3.887a9.31 9.31 0 0 1 3.881 12.573c-2.392 4.542-8.03 6.277-12.573 3.88s-6.28-8.03-3.88-12.568m-16.6-14.396a9.3 9.3 0 0 1 13.068 1.481c3.204 4.024 2.544 9.872-1.478 13.076-4.016 3.2-9.875 2.532-13.08-1.5-3.198-4.013-2.527-9.87 1.5-13.068m-9.407-19.714c4.96-1.335 10.064 1.6 11.404 6.568 1.32 4.97-1.618 10.067-6.588 11.404-4.96 1.332-10.058-1.618-11.4-6.588-1.323-4.95 1.626-10.055 6.585-11.384m-.91-20.942a9.3 9.3 0 0 1 8.012 10.438 9.3 9.3 0 0 1-10.441 7.994c-5.096-.666-8.686-5.35-8.012-10.438a9.3 9.3 0 0 1 10.441-7.994m7.625-20.397c4.407 2.64 5.842 8.35 3.198 12.768a9.3 9.3 0 0 1-12.762 3.184c-4.405-2.635-5.834-8.355-3.2-12.76a9.32 9.32 0 0 1 12.765-3.193"/><path d="M139.975 125.532a9.3 9.3 0 0 1-2.14 12.98 9.29 9.29 0 0 1-12.976-2.149c-2.998-4.164-2.038-9.978 2.138-12.968a9.3 9.3 0 0 1 12.98 2.138m22.523-8.813a9.31 9.31 0 0 1-7.62 10.738c-5.073.846-9.864-2.564-10.718-7.634-.857-5.065 2.555-9.867 7.623-10.718 5.056-.86 9.864 2.555 10.715 7.614m15.863 130.94c0 4.4-3.576 7.983-8 7.983a7.98 7.98 0 0 1-7.974-7.983c0-4.402 3.57-7.98 7.974-7.98a7.99 7.99 0 0 1 7.989 7.98m24.098-6.585a7.98 7.98 0 0 1-5.039 10.098 7.99 7.99 0 0 1-10.098-5.048 7.98 7.98 0 0 1 5.045-10.098 7.97 7.97 0 0 1 10.092 5.048M161.917 92.922a7.98 7.98 0 1 1 7.727 8.226 7.97 7.97 0 0 1-7.726-8.226m23.612.672a7.99 7.99 0 0 1 10.115-5.025 7.98 7.98 0 0 1 5.019 10.112c-1.4 4.182-5.928 6.428-10.104 5.025a7.99 7.99 0 0 1-5.03-10.112m-47.156 5.962a7.98 7.98 0 0 1 5.259-9.981 7.99 7.99 0 0 1 9.989 5.265 7.98 7.98 0 0 1-5.271 9.987 7.97 7.97 0 0 1-9.978-5.271m-21.547 14.732c-2.66-3.518-1.964-8.526 1.563-11.18 3.516-2.655 8.517-1.958 11.176 1.555 2.655 3.524 1.958 8.532-1.563 11.184a7.97 7.97 0 0 1-11.176-1.558M94.23 154.92a7.99 7.99 0 0 1-4.905-10.172c1.46-4.162 6.008-6.345 10.175-4.9a7.98 7.98 0 0 1 4.893 10.175c-1.45 4.156-6 6.345-10.164 4.896m7.723-22.44c-3.64-2.5-4.556-7.46-2.06-11.098s7.47-4.556 11.093-2.055a7.97 7.97 0 0 1 2.064 11.098 7.98 7.98 0 0 1-11.096 2.055m-9.08 46.412a7.99 7.99 0 0 1-7.691-8.266c.17-4.407 3.87-7.852 8.27-7.7 4.407.154 7.843 3.856 7.694 8.263-.157 4.405-3.86 7.85-8.272 7.7M99.2 202.6a7.98 7.98 0 0 1-9.91-5.41 7.99 7.99 0 0 1 5.408-9.909 7.984 7.984 0 1 1 4.502 15.32m13.814 20.56c-3.564 2.598-8.558 1.83-11.167-1.726-2.598-3.556-1.83-8.555 1.724-11.16 3.553-2.6 8.55-1.84 11.16 1.715a8.01 8.01 0 0 1-1.718 11.17m38.74 23.14c-1.526 4.136-6.1 6.268-10.247 4.75-4.13-1.512-6.268-6.097-4.748-10.238a7.99 7.99 0 0 1 10.241-4.753c4.136 1.515 6.262 6.1 4.753 10.24m-20.164-8.2a7.99 7.99 0 0 1-11.133 1.906c-3.593-2.55-4.447-7.534-1.904-11.13 2.552-3.598 7.53-4.447 11.13-1.898s4.45 7.53 1.906 11.12m45.758-165.565c0 3.844-3.113 6.957-6.96 6.957a6.95 6.95 0 0 1-6.943-6.957c0-3.84 3.1-6.954 6.943-6.954s6.96 3.115 6.96 6.954M196.3 75.85c-.752 3.76-4.413 6.205-8.174 5.453a6.96 6.96 0 0 1-5.456-8.177 6.95 6.95 0 0 1 8.18-5.459c3.76.752 6.202 4.413 5.45 8.183m17.068 6.5a6.95 6.95 0 0 1-9.052 3.841c-3.564-1.435-5.282-5.5-3.847-9.052a6.96 6.96 0 0 1 9.052-3.847 6.97 6.97 0 0 1 3.847 9.058M72.47 163.67c3.847-.034 6.97 3.055 7.008 6.903a6.96 6.96 0 0 1-6.9 7.003c-3.853.03-6.968-3.06-7.008-6.894a6.95 6.95 0 0 1 6.9-7.01m3.16-19c3.77.73 6.24 4.37 5.52 8.14a6.95 6.95 0 0 1-8.134 5.516c-3.78-.723-6.24-4.367-5.522-8.134a6.95 6.95 0 0 1 8.137-5.522"/><path d="M82.013 127.567c3.564 1.412 5.313 5.448 3.896 9.02-1.406 3.573-5.45 5.322-9.02 3.907a6.94 6.94 0 0 1-3.901-9.018c1.4-3.573 5.445-5.325 9.026-3.9m10.74-17.356a6.97 6.97 0 0 1 1.955 9.635c-2.124 3.204-6.44 4.076-9.64 1.952a6.952 6.952 0 0 1 7.686-11.587M105.5 96.667c2.74 2.684 2.784 7.088.097 9.83-2.698 2.74-7.1 2.78-9.838.094a6.96 6.96 0 0 1-.097-9.835c2.687-2.738 7.1-2.787 9.838-.1m15.816-11.41c2.1 3.207 1.238 7.523-1.975 9.638a6.95 6.95 0 0 1-9.629-1.972c-2.112-3.207-1.24-7.514 1.97-9.635 3.198-2.112 7.5-1.232 9.635 1.97M137.43 77.9a6.96 6.96 0 0 1-3.57 9.166 6.95 6.95 0 0 1-9.155-3.56c-1.55-3.516.05-7.62 3.553-9.163 3.5-1.55 7.614.046 9.172 3.558m18.982-4.357c.895 3.733-1.406 7.5-5.14 8.383a6.951 6.951 0 1 1-3.253-13.517 6.96 6.96 0 0 1 8.392 5.133m7.184 194.257c-.03-3.847 3.06-6.977 6.9-7 3.836-.03 6.963 3.064 7.003 6.9.014 3.84-3.075 6.98-6.9 7.003a6.96 6.96 0 0 1-7.003-6.903m-18.993-3.167c.726-3.77 4.376-6.237 8.15-5.514a6.96 6.96 0 0 1 5.514 8.14c-.726 3.77-4.37 6.24-8.146 5.52-3.773-.726-6.237-4.376-5.516-8.146m-17.108-6.383a6.97 6.97 0 0 1 9.023-3.916c3.57 1.423 5.325 5.46 3.913 9.038a6.95 6.95 0 1 1-12.936-5.122m-17.34-10.75a6.96 6.96 0 0 1 9.647-1.952 6.95 6.95 0 0 1 1.944 9.635c-2.112 3.2-6.434 4.07-9.635 1.952a6.96 6.96 0 0 1-1.955-9.635m-13.543-12.75a6.94 6.94 0 0 1 9.815-.091 6.95 6.95 0 0 1 .103 9.832c-2.692 2.735-7.1 2.787-9.832.094a6.95 6.95 0 0 1-.086-9.835M85.2 218.92a6.96 6.96 0 0 1 9.635 1.972 6.96 6.96 0 0 1-1.972 9.635c-3.2 2.112-7.523 1.232-9.635-1.978-2.1-3.204-1.226-7.5 1.972-9.63m-7.35-16.115c3.52-1.546 7.623.054 9.155 3.564 1.558 3.52-.037 7.62-3.564 9.166-3.504 1.546-7.6-.054-9.143-3.57-1.555-3.516.037-7.614 3.553-9.16m-4.346-18.987a6.95 6.95 0 0 1 8.377 5.139c.897 3.74-1.406 7.5-5.14 8.38-3.733.906-7.5-1.4-8.377-5.136a6.95 6.95 0 0 1 5.139-8.383m127.906 79.058a6.97 6.97 0 0 1 3.713-9.115c3.536-1.486 7.606.17 9.1 3.7a6.97 6.97 0 0 1-3.696 9.115c-3.536 1.486-7.614-.172-9.118-3.7m-19.034 4.073c-.837-3.747 1.515-7.466 5.26-8.3a6.94 6.94 0 0 1 8.3 5.265c.85 3.74-1.5 7.457-5.26 8.3-3.744.837-7.45-1.515-8.3-5.265"/><path d="M163.432 56.066a5.925 5.925 0 1 1-11.85 0 5.925 5.925 0 1 1 11.85 0m26.5 1.654c-.752 3.18-3.944 5.153-7.123 4.393a5.91 5.91 0 0 1-4.4-7.126 5.94 5.94 0 0 1 7.14-4.399 5.92 5.92 0 0 1 4.393 7.131m20.568 5.75c-1.323 2.984-4.828 4.324-7.8 3-2.993-1.332-4.327-4.845-3.004-7.826a5.95 5.95 0 0 1 7.832-3c2.98 1.335 4.327 4.83 2.98 7.826m18.252 8.935c-1.835 2.707-5.514 3.4-8.223 1.56a5.92 5.92 0 0 1-1.552-8.232 5.93 5.93 0 0 1 8.229-1.558 5.91 5.91 0 0 1 1.546 8.229m-10.397 201.083c-1.235-3.035.22-6.497 3.244-7.723a5.92 5.92 0 0 1 7.723 3.256c1.235 3.027-.22 6.482-3.25 7.726a5.94 5.94 0 0 1-7.717-3.258m-20.66 7.416c-.632-3.213 1.455-6.334 4.665-6.963 3.215-.635 6.328 1.458 6.954 4.67a5.92 5.92 0 1 1-11.619 2.291m-21.237 3.294c-.01-3.276 2.627-5.94 5.9-5.96a5.92 5.92 0 0 1 5.957 5.888c.026 3.276-2.62 5.937-5.897 5.962a5.93 5.93 0 0 1-5.951-5.891m-25.406-1.308c.717-3.198 3.88-5.22 7.068-4.507 3.193.697 5.205 3.867 4.496 7.063-.697 3.193-3.864 5.205-7.057 4.502s-5.2-3.867-4.507-7.057m-18.627-4.702c1.24-3.035 4.685-4.5 7.72-3.267a5.93 5.93 0 0 1 3.264 7.714 5.93 5.93 0 0 1-7.72 3.267c-3.027-1.238-4.5-4.7-3.264-7.714M108.028 266.4a5.92 5.92 0 0 1 8.269-1.358c2.664 1.906 3.264 5.6 1.352 8.266a5.93 5.93 0 0 1-8.269 1.355 5.93 5.93 0 0 1-1.352-8.263m-15.663-12.064a5.94 5.94 0 0 1 8.389.1c2.278 2.338 2.23 6.088-.103 8.372a5.93 5.93 0 0 1-8.383-.091c-2.284-2.347-2.247-6.088.097-8.38m-14.817-16.513c2.74-1.786 6.414-1.023 8.197 1.712a5.89 5.89 0 0 1-1.7 8.19c-2.74 1.806-6.408 1.035-8.203-1.698a5.93 5.93 0 0 1 1.706-8.203M67 220.43c3.018-1.278 6.505.123 7.77 3.138a5.91 5.91 0 0 1-3.127 7.766 5.94 5.94 0 0 1-7.772-3.133c-1.28-3.013.13-6.488 3.13-7.772m-7.04-18.183a5.93 5.93 0 0 1 7.123 4.416 5.91 5.91 0 0 1-4.419 7.117c-3.184.755-6.37-1.226-7.117-4.407-.743-3.187 1.226-6.37 4.413-7.126M55.6 177.8c3.28-.043 5.974 2.575 6.005 5.85a5.92 5.92 0 0 1-5.848 5.994 5.93 5.93 0 0 1-6.005-5.845 5.94 5.94 0 0 1 5.848-5.999m.907-23.872c3.2.643 5.296 3.76 4.653 6.963a5.94 5.94 0 0 1-6.974 4.656 5.93 5.93 0 0 1-4.645-6.963c.63-3.204 3.756-5.3 6.965-4.656"/><path d="M62 131.774c3.015 1.263 4.436 4.745 3.173 7.76a5.92 5.92 0 0 1-7.754 3.167c-3.015-1.263-4.436-4.733-3.173-7.754A5.93 5.93 0 0 1 62 131.774m9.918-20.882c2.715 1.852 3.4 5.54 1.56 8.237-1.852 2.695-5.536 3.398-8.24 1.546a5.94 5.94 0 0 1-1.549-8.235 5.93 5.93 0 0 1 8.229-1.549m14.388-18.943c2.267 2.37 2.187 6.122-.186 8.377-2.358 2.255-6.114 2.18-8.37-.186-2.264-2.37-2.175-6.12.183-8.375a5.93 5.93 0 0 1 8.372.183m15.712-13.9c1.784 2.74 1.015 6.414-1.72 8.2-2.727 1.8-6.405 1.023-8.203-1.712a5.96 5.96 0 0 1 1.718-8.209 5.94 5.94 0 0 1 8.206 1.721m17.88-10.76a5.92 5.92 0 0 1-3.187 7.752 5.91 5.91 0 0 1-7.74-3.178c-1.27-3.02.157-6.485 3.173-7.754a5.93 5.93 0 0 1 7.754 3.181m21.162-7.76a5.92 5.92 0 0 1-4.65 6.98c-3.187.646-6.33-1.426-6.965-4.64-.64-3.207 1.435-6.328 4.645-6.977 3.204-.646 6.322 1.432 6.97 4.636m7.955-20.544c.606 3.058-1.36 6.025-4.413 6.63-3.047.612-6-1.358-6.63-4.4a5.65 5.65 0 0 1 4.419-6.637c3.047-.606 6.005 1.36 6.625 4.405m27.134-1.544c-.034 3.113-2.567 5.62-5.668 5.6-3.113-.017-5.625-2.56-5.596-5.66.017-3.12 2.56-5.6 5.668-5.594 3.1.023 5.608 2.555 5.596 5.662m30.787 5.073c-.746 3.015-3.804 4.86-6.814 4.113a5.62 5.62 0 0 1-4.113-6.808c.746-3.024 3.793-4.862 6.8-4.12s4.85 3.796 4.116 6.814m21.026 8.04a5.64 5.64 0 0 1-7.411 2.915c-2.853-1.25-4.153-4.567-2.9-7.414 1.252-2.853 4.556-4.153 7.406-2.907a5.63 5.63 0 0 1 2.915 7.406m-13.258 244.764a5.64 5.64 0 0 1 3.121-7.323c2.895-1.158 6.17.246 7.326 3.133 1.15 2.9-.246 6.162-3.13 7.323-2.887 1.146-6.15-.254-7.317-3.133m-24.174 6.13c-.6-3.06 1.395-6.017 4.442-6.614s6 1.4 6.608 4.44a5.63 5.63 0 0 1-4.445 6.608c-3.047.595-6.002-1.4-6.605-4.433m-28.334 1.34c.066-3.115 2.635-5.585 5.736-5.514a5.61 5.61 0 0 1 5.499 5.742c-.06 3.1-2.627 5.574-5.728 5.5-3.1-.074-5.58-2.638-5.508-5.74m-25.357-3.994a5.64 5.64 0 0 1 6.703-4.307c3.03.66 4.965 3.656 4.3 6.7-.663 3.044-3.656 4.97-6.7 4.307a5.65 5.65 0 0 1-4.31-6.691m-25-9.228c1.27-2.847 4.582-4.133 7.43-2.884 2.838 1.25 4.124 4.576 2.875 7.42-1.263 2.844-4.576 4.136-7.423 2.887-2.838-1.266-4.136-4.582-2.88-7.423M86.5 273.393a5.63 5.63 0 0 1 7.88-1.146c2.5 1.866 2.987 5.388 1.123 7.88a5.62 5.62 0 0 1-7.872 1.143 5.63 5.63 0 0 1-1.132-7.877m-15.223-14.445a5.65 5.65 0 0 1 7.97.103c2.164 2.235 2.115 5.8-.114 7.963-2.235 2.167-5.794 2.118-7.963-.12-2.158-2.22-2.115-5.785.1-7.946M56.212 238.54c2.612-1.7 6.1-.975 7.8 1.62 1.7 2.604.975 6.088-1.623 7.792-2.607 1.704-6.094.975-7.794-1.632a5.63 5.63 0 0 1 1.618-7.78m-9.668-19.604a5.63 5.63 0 0 1 7.423 2.875c1.246 2.84-.034 6.168-2.884 7.414-2.855 1.255-6.168-.023-7.423-2.88-1.246-2.84.04-6.162 2.884-7.4m-7.21-25.4c3.047-.66 6.05 1.255 6.714 4.3s-1.258 6.034-4.293 6.7c-3.047.67-6.04-1.255-6.714-4.3-.65-3.03 1.263-6.028 4.293-6.7m-2.004-27.58c3.104-.01 5.645 2.472 5.674 5.585.026 3.104-2.47 5.645-5.588 5.668-3.107.023-5.645-2.472-5.668-5.58-.014-3.1 2.475-5.65 5.582-5.674m3.613-26.873a5.63 5.63 0 0 1 4.425 6.617 5.63 5.63 0 0 1-6.622 4.413 5.62 5.62 0 0 1-4.42-6.623c.612-3.035 3.576-5.013 6.617-4.407m8.37-24.22c2.878 1.2 4.253 4.473 3.07 7.337-1.183 2.875-4.47 4.253-7.34 3.067a5.63 5.63 0 0 1-3.08-7.348c1.2-2.867 4.476-4.236 7.35-3.055m13.036-22.42c2.584 1.732 3.304 5.2 1.586 7.8a5.63 5.63 0 0 1-7.803 1.572 5.62 5.62 0 0 1-1.581-7.803c1.715-2.587 5.2-3.284 7.797-1.578m19.74-21.808a5.62 5.62 0 1 1-8.123 7.775 5.62 5.62 0 0 1 .183-7.96c2.247-2.138 5.8-2.064 7.94.186m18.963-13.98c1.7 2.6 1.012 6.077-1.575 7.8-2.595 1.718-6.094 1.012-7.806-1.58s-1.012-6.08 1.575-7.8a5.64 5.64 0 0 1 7.806 1.581m22.984-11.122a5.63 5.63 0 0 1-3.035 7.36 5.64 5.64 0 0 1-7.351-3.041c-1.2-2.884.157-6.17 3.047-7.363 2.867-1.183 6.157.177 7.34 3.044M158.8 22.844a3.61 3.61 0 0 1-3.607 3.61 3.61 3.61 0 0 1-3.61-3.61c0-1.992 1.615-3.604 3.6-3.604a3.61 3.61 0 0 1 3.607 3.604M172.495 6.88c0 1.595-1.298 2.88-2.884 2.88-1.598 0-2.9-1.286-2.9-2.88S168.003 4 169.61 4c1.586 0 2.884 1.286 2.884 2.88m38.535 5.2c-.377 1.546-1.924 2.495-3.484 2.124-1.546-.38-2.5-1.94-2.112-3.5a2.89 2.89 0 0 1 3.487-2.124c1.535.38 2.5 1.944 2.1 3.5m29.633 10.812c-.663 1.45-2.387 2.1-3.83 1.412-1.455-.67-2.078-2.378-1.406-3.833a2.88 2.88 0 0 1 3.821-1.409 2.89 2.89 0 0 1 1.415 3.83m-13.422 300.236c-.583-1.483.163-3.158 1.635-3.733a2.88 2.88 0 0 1 3.733 1.641c.583 1.48-.157 3.158-1.635 3.733a2.88 2.88 0 0 1-3.733-1.641"/><path d="M197.422 331.14a2.89 2.89 0 0 1 2.298-3.367c1.575-.286 3.084.746 3.364 2.312a2.87 2.87 0 0 1-2.307 3.364c-1.563.292-3.067-.752-3.356-2.3m-33.92 2.165a2.89 2.89 0 0 1 2.955-2.815c1.6.05 2.855 1.375 2.807 2.96a2.85 2.85 0 0 1-2.95 2.8c-1.6-.04-2.85-1.37-2.812-2.955m-34.115-5.02c.383-1.55 1.946-2.504 3.484-2.127a2.9 2.9 0 0 1 2.127 3.481c-.377 1.543-1.935 2.504-3.478 2.13-1.55-.374-2.507-1.946-2.132-3.484m-30.17-11.04c.675-1.446 2.387-2.07 3.82-1.398a2.88 2.88 0 0 1 1.409 3.827 2.87 2.87 0 0 1-3.83 1.403c-1.443-.67-2.07-2.384-1.4-3.833m-29.107-18.018c.955-1.275 2.758-1.532 4.04-.575 1.26.97 1.515 2.77.563 4.042-.943 1.278-2.764 1.538-4.033.572-1.266-.96-1.532-2.767-.57-4.04M48.9 279.527a2.88 2.88 0 0 1 4.076.154c1.083 1.175 1.02 2.995-.15 4.07a2.87 2.87 0 0 1-4.076-.146c-1.1-1.166-1.018-3 .15-4.08M31.874 257.03c1.335-.87 3.13-.48 3.984.857.866 1.335.5 3.115-.846 3.98-1.346.87-3.12.492-3.987-.843s-.492-3.127.85-3.993m-11.788-22.45c1.46-.652 3.167-.006 3.8 1.45.65 1.463 0 3.173-1.455 3.8a2.89 2.89 0 0 1-3.821-1.452c-.637-1.45.01-3.158 1.466-3.807m-9.39-29.19a2.9 2.9 0 0 1 3.476 2.138c.354 1.563-.597 3.113-2.147 3.476a2.87 2.87 0 0 1-3.47-2.149c-.366-1.543.592-3.093 2.14-3.464M6.84 169.385c1.6-.026 2.898 1.25 2.915 2.85.006 1.595-1.27 2.898-2.855 2.907a2.87 2.87 0 0 1-2.915-2.85c-.023-1.598 1.27-2.898 2.855-2.907m3-30.402c1.563.274 2.612 1.775 2.327 3.34s-1.78 2.615-3.338 2.332a2.882 2.882 0 1 1 1.012-5.674m9.963-32.585c1.475.595 2.178 2.275 1.586 3.75-.606 1.478-2.3 2.2-3.76 1.583a2.88 2.88 0 1 1 2.175-5.333m16.193-29.374c1.332.9 1.68 2.684.775 4-.9 1.33-2.68 1.683-3.987.777a2.87 2.87 0 0 1-.792-3.996c.895-1.318 2.687-1.666 4.004-.78m21.894-25.48c1.118 1.146 1.1 2.96-.046 4.073-1.155 1.115-2.98 1.086-4.076-.054a2.87 2.87 0 0 1 .049-4.076 2.88 2.88 0 0 1 4.073.057m25.175-19.54c.875 1.335.492 3.12-.837 4-1.346.866-3.133.5-3.984-.843-.883-1.335-.5-3.124.835-3.993a2.88 2.88 0 0 1 3.987.846M112.68 17.3c.6 1.486-.143 3.153-1.626 3.74a2.87 2.87 0 0 1-3.727-1.632c-.595-1.486.143-3.153 1.62-3.74 1.48-.58 3.153.154 3.733 1.635m27.3-7.633c.323 1.563-.692 3.08-2.25 3.398-1.566.312-3.1-.695-3.396-2.252-.33-1.563.686-3.084 2.255-3.4 1.558-.317 3.07.692 3.4 2.255M192 24.036a3.6 3.6 0 0 1-4.322 2.71c-1.935-.446-3.15-2.378-2.704-4.32.44-1.938 2.375-3.147 4.316-2.707a3.59 3.59 0 0 1 2.7 4.316M221.7 31.7a3.61 3.61 0 0 1-4.785 1.758 3.61 3.61 0 0 1-1.766-4.785c.84-1.815 2.987-2.598 4.8-1.76s2.584 2.98 1.76 4.788m14.85 270.387c-.76-1.835.114-3.944 1.978-4.7 1.824-.757 3.933.126 4.7 1.966a3.62 3.62 0 0 1-1.96 4.707c-1.844.752-3.953-.13-4.707-1.975m-26.704 10.35a3.6 3.6 0 0 1 2.827-4.247 3.61 3.61 0 0 1 4.236 2.844c.397 1.95-.875 3.856-2.824 4.233-1.96.4-3.864-.883-4.24-2.83m-30.604 5.16c.02-1.992 1.655-3.58 3.65-3.556 1.995.03 3.587 1.672 3.547 3.66a3.59 3.59 0 0 1-3.65 3.55c-1.995-.03-3.58-1.666-3.547-3.656m-32.258-1.532c.463-1.935 2.398-3.135 4.336-2.675 1.93.46 3.135 2.407 2.667 4.342a3.59 3.59 0 0 1-4.345 2.667c-1.93-.457-3.115-2.398-2.658-4.333m-25.876-6.538c.8-1.82 2.938-2.65 4.768-1.855 1.8.812 2.638 2.935 1.838 4.76a3.6 3.6 0 0 1-4.753 1.846c-1.82-.8-2.644-2.933-1.852-4.75m-29.135-13.992a3.61 3.61 0 0 1 5.04-.77c1.6 1.178 1.946 3.436.757 5.033-1.166 1.6-3.42 1.958-5.025.78a3.61 3.61 0 0 1-.772-5.045m-22.472-17.2a3.62 3.62 0 0 1 5.102.209c1.346 1.455 1.255 3.747-.212 5.093a3.61 3.61 0 0 1-5.09-.2 3.61 3.61 0 0 1 .2-5.102m-17.18-19.008c1.672-1.075 3.9-.595 4.985 1.08a3.608 3.608 0 1 1-6.071 3.901c-1.083-1.68-.595-3.907 1.086-4.982m-13.342-21.095a3.61 3.61 0 0 1 4.736 1.909c.783 1.826-.07 3.947-1.906 4.716a3.62 3.62 0 0 1-4.733-1.892 3.62 3.62 0 0 1 1.904-4.733M28.8 213.233a3.59 3.59 0 0 1 4.3 2.732c.44 1.94-.795 3.867-2.74 4.3-1.94.434-3.86-.8-4.302-2.738-.43-1.935.797-3.864 2.732-4.293m-5.962-31.68a3.6 3.6 0 0 1 3.607 3.607c0 1.984-1.612 3.604-3.607 3.6-1.978.003-3.6-1.6-3.607-3.6 0-1.992 1.623-3.6 3.607-3.6m.492-27.963c1.955.366 3.236 2.255 2.864 4.22-.374 1.952-2.272 3.238-4.216 2.858-1.952-.372-3.238-2.258-2.867-4.213a3.6 3.6 0 0 1 4.219-2.864m6.233-28.915a3.59 3.59 0 0 1 1.966 4.699 3.6 3.6 0 0 1-4.707 1.966c-1.838-.752-2.715-2.858-1.964-4.696.757-1.84 2.867-2.724 4.705-1.97"/><path d="M41.383 97.68a3.62 3.62 0 0 1 .998 4.999 3.61 3.61 0 0 1-5.002.995c-1.658-1.112-2.1-3.35-.998-5.002 1.106-1.65 3.347-2.098 5.002-.992m18.393-25.76c1.386 1.426 1.335 3.7-.097 5.102a3.6 3.6 0 0 1-5.096-.109c-1.378-1.426-1.34-3.7.094-5.088 1.426-1.378 3.716-1.338 5.1.094m21.5-19.82c1.075 1.672.583 3.907-1.1 4.973-1.683 1.075-3.913.577-4.965-1.095-1.075-1.678-.6-3.907 1.083-4.98a3.61 3.61 0 0 1 4.982 1.1m23.49-14.445c.752 1.844-.154 3.94-2 4.685-1.835.746-3.944-.163-4.682-2-.74-1.84.154-3.94 2.006-4.685 1.838-.735 3.94.163 4.676 2m27.127-10.2a3.6 3.6 0 0 1-2.875 4.207 3.6 3.6 0 0 1-4.199-2.89c-.374-1.946.906-3.833 2.867-4.2s3.853.93 4.207 2.88"/></g><g stroke="#000"><path d="M192.69 180.968l13.146 1.535c-2.073 7.25-5.914 12.878-11.52 16.882s-12.77 6.005-21.487 6.005c-10.98 0-19.684-3.192-26.116-9.575s-9.648-15.336-9.648-26.858c0-11.922 3.25-21.175 9.754-27.76s14.937-9.876 25.303-9.876c10.036 0 18.235 3.225 24.597 9.675s9.542 15.525 9.542 27.225c0 .712-.024 1.78-.07 3.203H150.2c.47 7.785 2.804 13.746 6.997 17.883s9.424 6.206 15.69 6.206c4.665 0 8.646-1.157 11.945-3.47s5.913-6.005 7.845-11.077h0zm-41.772-19.418h41.913c-.566-5.96-2.168-10.432-4.806-13.412-4.052-4.626-9.306-6.94-15.762-6.94-5.843 0-10.755 1.846-14.737 5.538s-6.184 8.63-6.61 14.813h0zm71.597 42.24v-70.865h11.45v10.743c2.92-5.027 5.62-8.34 8.093-9.942s5.195-2.402 8.163-2.402c4.288 0 8.646 1.3 13.076 3.87l-4.382 11.143c-3.1-1.735-6.22-2.602-9.33-2.602-2.78 0-5.277.8-7.492 2.37s-3.793 3.77-4.736 6.573c-1.414 4.27-2.12 8.942-2.12 14.013v37.1h-12.722z" stroke-width="2.713"/><path d="M320.798 179.96l12.623 1.603c-1.38 8.5-4.91 15.154-10.6 19.962s-12.658 7.21-20.93 7.21c-10.365 0-18.696-3.3-24.996-9.93s-9.45-16.106-9.45-28.462c0-7.99 1.355-14.98 4.065-20.972s6.834-10.486 12.373-13.482 11.565-4.494 18.078-4.494c8.225 0 14.952 2.032 20.182 6.097s8.582 9.836 10.055 17.314l-12.48 1.88c-1.19-4.97-3.292-8.71-6.31-11.218s-6.668-3.762-10.947-3.762c-6.466 0-11.72 2.264-15.76 6.793s-6.062 11.694-6.062 21.495c0 9.94 1.95 17.163 5.848 21.67s8.986 6.758 15.26 6.758c5.04 0 9.247-1.5 12.623-4.53s5.515-7.664 6.418-13.935h0z" stroke-width="2.785"/></g></svg>