<svg xmlns="http://www.w3.org/2000/svg" xmlns:xlink="http://www.w3.org/1999/xlink" width="1036.339" height="1019.928" viewBox="0 0 1036.339 1019.927"><style><![CDATA[.F{stroke-width:13.998}.G{stroke-width:13.999}.H{stroke-width:14.28}.I{stroke-width:12.535}]]></style><defs><path id="A" d="M127.663 410.776v96.8l80.2 33.257 77.2-32.57v-96.8l-80.2-33.257z"/><path id="B" d="M127.663 410.776l80.2 33.257 77.2-32.57"/></defs><circle cx="518.169" cy="509.964" r="512.992" fill="#fff"/><g transform="matrix(.902768 0 0 .902768 50.825425 44.439003)" fill="none" stroke="#0b0000"><path d="M207.864 444.034v96.8" class="F"/><g class="G"><use xlink:href="#A"/><use xlink:href="#B"/></g><path d="M830.506 445.4v96.8" class="F"/><g class="G"><use xlink:href="#A" x="622.642" y="1.374"/><use xlink:href="#B" x="622.642" y="1.374"/></g><path d="M519.185 444.72v96.8" class="F"/><g class="G"><use xlink:href="#A" x="311.321" y=".688"/><use xlink:href="#B" x="311.321" y="0.688"/></g><path d="M210.877 809.397v96.8" class="F"/><g class="G"><use xlink:href="#A" x="3.013" y="365.364"/><use xlink:href="#B" x="3.013" y="365.364"/></g><path d="M524.463 808.448v96.8" class="F"/><g class="G"><use xlink:href="#A" x="625.655" y="366.739"/><use xlink:href="#B" x="625.655" y="366.739"/></g><path d="M833.52 810.772v96.8" class="F"/><g class="G"><use xlink:href="#A" x="316.599" y="364.424"/><use xlink:href="#B" x="316.599" y="364.424"/></g><path d="M519.185 541.5v202.747" class="H"/><path d="M750.305 412.15h-153.93m-157.4-.687h-153.93" class="I"/><path d="M830.506 542.198v202.747M207.864 540.823V743.57" class="H"/><g class="G"><use xlink:href="#A" x="-3.013" y="-254.45"/><use xlink:href="#B" x="-3.013" y="-254.45"/></g><path d="M204.852 189.583v96.8" class="F"/><path d="M204.852 286.373v91.833" class="I"/></g></svg>
