<svg xmlns="http://www.w3.org/2000/svg" width="97" height="98" fill-rule="evenodd" xmlns:v="https://vecta.io/nano"><path d="M48.86 97C22.494 97 1.035 75.462 1.035 49.035 1.035 22.573 22.494 1 48.86 1c26.33 0 47.824 21.573 47.824 48 0 26.462-21.494 48-47.824 48" stroke="#08255a" stroke-width=".25" fill="#fff"/><path d="M83.447 49.07c0-19.165-15.494-34.75-34.553-34.787h0-.07C29.73 14.32 14.27 29.87 14.27 49.07c0 19.094 15.494 34.645 34.553 34.645h.07c19.06 0 34.553-15.55 34.553-34.645" fill="#08255a"/><path d="M48.753 49.07v33.866c-18.53 0-33.706-15.303-33.706-33.866 0-18.67 15.176-33.866 33.706-33.866V49.07z" fill="#4c9fdc"/><path d="M17.553 55.98l.565-.248c.176-.07.282.213.14.283l-.53.248c-.247.07-.353-.213-.176-.283h0zm1.87-10.308l-.282-.07c-.212-.035-.247.248-.07.283l.282.07c.176.07.247-.248.07-.283h0zm.53 4.57l-.6.035c-.212.035-.14.32.035.32l.6-.035c.212-.035.14-.354-.035-.32h0zm-1.094-4.71l-1.447-.4c-.212-.035-.247.248-.07.283l1.447.4c.176.035.247-.248.07-.283h0zm2.365 19.52l.882-1.24c.106-.177-.14-.354-.247-.177l-.882 1.24c-.106.177.106.354.247.177h0zm1.165-16.862l-2.4-.213c-.176-.035-.247.283-.035.32l2.4.213c.176 0 .247-.283.035-.32h0zm-2.012 12.93l.882-.886c.14-.142-.07-.354-.212-.213l-.882.886c-.14.142.07.354.212.213h0zm-1.624-10.77l-.318.035c-.212.035-.14.32.035.32l.318-.035c.212-.035.14-.354-.035-.32h0zm.14-10.556c-.176-.106-.353.142-.176.248l1.165.815c.176.106.353-.142.176-.248l-1.165-.815zm.847 12.682l-1.447.4c-.176.035-.106.354.07.283l1.447-.4c.212-.035.14-.354-.07-.283h0zm.282-6.66c-.212-.035-.247.248-.07.283l.6.142c.212.035.247-.248.07-.283l-.6-.142zm-.282 9.14l-1.094.496c-.176.07-.07.354.14.283l1.094-.496c.14-.07.035-.354-.14-.283h0zm-.353-7.014l-1.518-.142c-.176-.035-.247.283-.035.32l1.518.142c.176 0 .247-.32.035-.32h0zm2.93 11.265l.424-.425c.14-.142-.07-.354-.212-.213l-.424.425c-.14.142.07.354.212.213h0zM27.54 66.5l.46-1.665.035-.142c.035-.213-.247-.248-.282-.07l-.494 1.807c-.07.213.212.283.282.07h0zm-.776 2.94l.388-1.452c.035-.213-.247-.248-.282-.07l-.388 1.452c-.07.177.212.248.282.07h0zm-4.34-6.128l1.27-1.842c.106-.177-.14-.354-.247-.177l-1.27 1.842c-.106.177.14.354.247.177h0zm3.353-.142l.53-1.134c.07-.177-.176-.32-.282-.142l-.53 1.134c-.07.213.176.354.282.142h0zm1.66-3.542l.6-1.275c.07-.177-.176-.32-.282-.142l-.6 1.275c-.07.177.176.32.282.142h0zm-.53.425l-.247.53c-.07.177.176.32.282.142l.247-.53c.07-.213-.176-.354-.282-.142h0zm-1.66 4.215l.247-.53c.07-.177-.176-.32-.282-.142l-.247.53c-.07.213.176.32.282.142h0zm.776 7.935l.6-2.16c.035-.213-.247-.248-.282-.07l-.6 2.16c-.07.177.212.248.282.07h0zM20.2 43.757l1.376.638c.176.07.282-.213.14-.283l-1.376-.638c-.212-.07-.318.213-.14.283h0zm7.976 20.404l.635-2.338c.035-.213-.247-.248-.282-.07l-.635 2.338c-.07.213.212.248.282.07h0zm-4.976 4.5l.14-.283c.07-.177-.176-.32-.282-.142l-.14.283c-.07.177.176.32.282.142h0zm.388-.815l.247-.53c.07-.177-.176-.32-.282-.142l-.247.53c-.07.177.176.32.282.142h0zm1.376-8.68l-1.2 1.736c-.106.177.14.354.247.177l1.2-1.736c.106-.142-.14-.32-.247-.177h0zm-.882 7.58l.565-1.204c.07-.177-.176-.32-.282-.142l-.565 1.204c-.035.177.176.32.282.142h0zm4.87-5.49l.388-1.452c.035-.213-.247-.248-.282-.07l-.388 1.452c-.07.177.212.248.282.07h0zm.176-23.805c-.035-.177-.353-.106-.282.07l.353 1.346c.035.177.353.106.282-.07l-.353-1.346zm-.318-1.17c-.035-.177-.353-.106-.282.07l.14.602c.035.177.353.106.282-.07l-.14-.602zm-.706-2.62c-.035-.177-.353-.106-.282.07l.353 1.382c.035.177.353.106.282-.07l-.353-1.382zm.46 1.77c-.035-.177-.353-.106-.282.07l.07.283c.035.177.353.106.282-.07l-.07-.283zm-.776-2.94c-.035-.177-.353-.106-.282.07l.14.602c.035.177.353.106.282-.07l-.14-.602zm-.247-.886c-.035-.177-.353-.106-.282.07l.07.283c.035.177.353.106.282-.07l-.07-.283zm-.46-1.736c-.035-.177-.353-.106-.282.07l.353 1.346c.035.177.353.106.282-.07l-.353-1.346zm3.212.53l.14 1.523c.035.213.318.142.318-.035l-.14-1.523c-.035-.213-.318-.142-.318.035h0zM20.2 41.065l.247.177c.14.106.353-.142.176-.248l-.247-.177c-.14-.106-.353.142-.176.248h0zm10.518-5.845l.176 2.125c.035.213.318.142.318-.035l-.176-2.125c-.035-.213-.318-.142-.318.035h0zm-.74-8.43l.212 2.444c.035.213.318.142.318-.035l-.212-2.444c-.035-.213-.318-.177-.318.035h0zm-.212-2.728l.176 2.232c.035.213.318.142.318-.035l-.212-2.232c-.035-.213-.318-.142-.282.035h0zm-.212-2.125l.14 1.523c.035.213.318.142.318-.035l-.14-1.523c-.035-.177-.318-.142-.318.035h0zm-.247 17.358l.07.283c.035.177.353.106.282-.07l-.07-.283c-.035-.177-.353-.142-.282.07h0zm-6.6-3.507c-.106-.177-.353 0-.247.177l.176.248c.106.177.353 0 .247-.177l-.176-.248zm4.06-7.085c-.035-.177-.353-.106-.282.07l.14.602c.035.177.353.106.282-.07l-.14-.602zM21.682 34.3c-.106-.177-.353 0-.247.177l.776 1.098c.106.177.353 0 .247-.177l-.776-1.098zm.282 5.03l1.694 1.7c.14.142.353-.07.212-.213l-1.694-1.7c-.14-.142-.353.07-.212.213h0zm-1.518-6.766c-.106-.177-.353 0-.247.177l.176.248c.106.177.353 0 .247-.177l-.176-.248zm.67 8.785c-.14-.106-.353.142-.176.248l.494.354c.176.106.353-.142.176-.248l-.494-.354zm2.118-4.818c-.106-.177-.353 0-.247.177l.353.496c.106.177.353 0 .247-.177l-.353-.496zm2.506-11.655c-.035-.177-.353-.106-.282.07l.14.602c.035.177.353.106.282-.07l-.14-.602zm.318 1.17c-.035-.177-.353-.106-.282.07l.318 1.24c.035.177.353.106.282-.07l-.318-1.24zm-2.824 3.72c-.07-.177-.353-.07-.282.142l.635 1.382c.07.177.353.07.282-.142l-.635-1.382zm3.282-1.948c-.035-.177-.353-.106-.282.07l.07.283c.035.177.353.106.282-.07l-.07-.283zM25 34.263l.882 1.913c.07.177.353.07.282-.142l-.882-1.913c-.07-.142-.353-.035-.282.142h0zm-.882-2.586c-.07-.177-.353-.07-.282.142l.953 2.1c.07.177.353.07.282-.142l-.953-2.1zm6.388.815l.212 2.41c.035.213.318.142.318-.035l-.212-2.41c-.07-.177-.353-.142-.318.035h0zM40.6 62l.035.035c.106.177.353 0 .247-.177l-.035-.035c-.106-.177-.353 0-.247.177h0zm6.14-13.815l.6-.035c.212-.035.14-.32-.035-.32l-.6.035c-.212.07-.14.354.035.32h0zm-3.176-15.162l1.024-1.488c.106-.142-.14-.354-.247-.177l-1.06 1.523c-.07.177.14.32.282.142h0zm1.8 3.046l1.06-1.063c.14-.142-.07-.354-.212-.213l-1.06 1.063c-.14.142.07.354.212.213h0zm.776 6.837l.565-.248c.176-.07.07-.354-.14-.283l-.53.248c-.212.106-.106.4.106.283h0zm-.67-12.576l.882-1.24c.106-.177-.14-.354-.247-.177l-.882 1.24c-.14.142.106.32.247.177h0zm-.565 15.693l2.33-.638c.176-.035.106-.354-.07-.283l-2.33.638c-.212.035-.14.32.07.283h0zm.74 16.65l-1.06-1.063c-.14-.142-.353.07-.212.213l1.06 1.063c.14.142.353-.07.212-.213h0zm-2.682 2.16l.14.213-.14-.213zm-.106.4h0c.14.213.388.035.282-.142l-.035-.035c-.106-.142-.353.035-.247.177h0zm2.224 3.153l.07.07c.106.177.353 0 .247-.177l-.07-.07c-.14-.142-.353.035-.247.177h0zM41.8 58.813l-1.694-1.7c-.14-.142-.353.07-.212.213l1.694 1.7c.14.142.353-.07.212-.213h0zm-.565 3.542c-.106-.177-.353 0-.247.177l.353.496c.106.177.353 0 .247-.177l-.353-.496zm2.26-1.842l-1.482-1.488c-.14-.142-.353.07-.212.213l1.482 1.488c.14.177.353-.07.212-.213h0zM43.14 33.13l.176-.213v-.035l-.176.248zm-4.412 26.18l.353.496c.106.177.353 0 .247-.177l-.353-.496c-.106-.177-.353 0-.247.177h0zm-3.565-5.632c-.106-.177-.353 0-.247.177l.882 1.24c.106.177.353 0 .247-.177l-.882-1.24zm4.482 3.01l-1.06-1.063c-.14-.142-.353.07-.212.213l1.06 1.063c.14.142.353-.07.212-.213h0zm.565-1.523l.494.354c.14.106.353-.142.176-.248l-.494-.354c-.14-.142-.318.106-.176.248h0zm-4.376-2.338l-1.694-1.7c-.14-.142-.353.07-.212.213l1.694 1.7c.14.142.353-.07.212-.213h0zm.14 2.515l.176.248c.106.177.353 0 .247-.177l-.176-.248c-.14-.177-.388 0-.247.177h0zm7.34-3.224l-.6-.142c-.212-.035-.247.248-.07.283l.6.142c.212.035.282-.248.07-.283h0zm.53.425l1.447.4c.212.035.247-.248.07-.283l-1.447-.4c-.212-.035-.282.248-.07.283h0zm.776-2.41l-1.518-.142c-.176-.035-.247.283-.035.32l1.518.142c.212 0 .247-.283.035-.32h0zM42.93 57.04h0c.176.142.353-.106.212-.213l-.07-.07c-.176-.035-.282.177-.14.283h0zm-.07-.4l.176.106c.035 0 .035 0 .07.035l-.247-.142zm2.965-8.68c-.212.035-.14.32.035.32l.318-.035c.212-.035.14-.32-.035-.32l-.318.035zm-3.882 5.632l-1.906-.886c-.176-.07-.282.213-.14.283l1.906.886c.212.07.318-.213.14-.283h0zm-10.2.744c.035-.177-.282-.248-.318-.035l-.07.602c-.035.177.282.248.318.035l.07-.602zM30.718 66.1c.035-.177-.282-.248-.318-.035l-.07.602c-.035.177.282.248.318.035l.07-.602zm.07-.673c.035-.177-.282-.248-.318-.035v.07c-.035.177.282.248.318.035v-.07zm.353-3.897c.035-.177-.282-.248-.318-.035v.07c-.035.177.282.248.318.035v-.07zm-.07.638c.035-.177-.282-.248-.318-.035l-.035.602c-.035.177.282.248.318.035l.035-.602zm-.106 1.24c.035-.177-.282-.248-.318-.035l-.14 1.523c-.035.177.282.248.318.035l.14-1.523zm-.53 5.916c.035-.177-.282-.248-.318-.035v.106c-.035.177.282.248.318.035v-.106zm.176-2.02c.035-.177-.282-.248-.318-.035l-.14 1.523c-.035.177.282.248.318.035l.14-1.523zm-.812 9.352l.14-1.523c.035-.177-.282-.248-.318-.035l-.14 1.523c0 .213.282.248.318.035h0zm.247-2.692c.035-.177-.282-.248-.318-.035l-.035.602c-.035.177.282.248.318.035l.035-.602zm-.318-15.658l.565-2.055c.035-.213-.247-.248-.282-.07l-.565 2.055c-.07.213.247.248.282.07h0zm.565 12.93c.035-.177-.282-.248-.318-.035l-.14 1.523c-.035.177.282.248.318.035l.14-1.523zm-.212 2.055c.035-.177-.282-.248-.318-.035v.07c-.035.177.282.248.318.035v-.07zm.318-3.26c.035-.177-.282-.248-.318-.035l-.035.602c-.035.177.282.248.318.035l.035-.602zm1.094-12.682c.035-.177-.282-.248-.318-.035l-.035.32c-.035.177.282.248.318.035l.035-.32zm-.176 2.125c.035-.177-.282-.248-.318-.035l-.14 1.523c-.035.177.282.248.318.035l.14-1.523zm16.835-26.214l.6-.602v-.425l-.812.815c-.176.142.07.354.212.213h0zM32.27 49.248l-1.024-2.196c-.07-.177-.353-.07-.282.142l1.024 2.196c.106.177.388.07.282-.142h0zm15.565-4.003l.882-.248v-.32l-.988.283c-.14.035-.07.32.106.283h0zm-.988 14.17c-.176-.106-.353.142-.176.248l.494.354c.14.106.353-.142.176-.248l-.494-.354zm.565-3.26l-2.188-1.027c-.176-.07-.318.213-.14.283l2.188 1.027c.212.106.282-.177.14-.283h0zm-15.318-5.74c.035-.177-.282-.248-.318-.035l-.035.602c-.035.177.282.248.318.035l.035-.602zm14.012 8.856l.07.07c.176.106.353-.142.176-.248l-.07-.07c-.176-.142-.353.106-.176.248h0zm-14.682-.992c.035-.177-.282-.248-.318-.035l-.035.602c-.035.177.282.248.318.035l.035-.602zm.247-2.728c.035-.177-.282-.248-.318-.035l-.14 1.523c-.035.177.282.248.318.035l.14-1.523zm.318-3.932c.035-.177-.282-.248-.318-.035l-.14 1.523c-.035.177.282.248.318.035l.14-1.523zm-.14 1.807c.035-.177-.282-.248-.318-.035l-.035.32c-.035.177.282.248.318.035l.035-.32zm-2.365 1.134l-.635 1.382c-.07.177.176.32.282.142l.635-1.382c.07-.177-.176-.32-.282-.142h0zm-7.376-9.883l2.188 1.027c.176.07.282-.213.14-.283l-2.188-1.027c-.212-.106-.318.177-.14.283h0zm5.118 9.175l-.212.213c-.14.142.07.354.212.213l.212-.213c.14-.142-.07-.354-.212-.213h0zm.847-.85l-.424.425c-.14.142.07.354.212.213l.424-.425c.14-.142-.07-.354-.212-.213h0zm.847-1.736l-1.73 1.204c-.176.106 0 .354.176.248l1.73-1.204c.14-.106-.035-.354-.176-.248h0zm-4.2-12.08l.176.248c.106.177.353 0 .247-.177L24.965 39c-.14-.142-.353.035-.247.177h0zm-.812 11.017c.212-.035.14-.32-.035-.32l-.6.035c-.212.035-.14.32.035.32l.6-.035zm.353 2.976c.176-.07.07-.354-.14-.283l-.282.142c-.176.07-.07.354.14.283l.282-.142zm2.047-3.188l.318-.035c.212-.035.14-.32-.035-.32l-.318.035c-.212.035-.14.354.035.32h0zm4.306-6.98c-.035-.177-.353-.106-.282.07l.07.283c.035.177.353.106.282-.07l-.07-.283zm-4.66 6.695l-1.518.142c-.212.035-.14.32.035.32l1.518-.142c.212-.035.176-.32-.035-.32h0zm-2.082-8.466l1.482 1.488c.14.142.353-.07.212-.213l-1.482-1.488c-.14-.142-.353.07-.212.213h0zm6.67 2.728l.14.602c.035.177.353.106.282-.07l-.14-.602c-.035-.177-.318-.106-.282.07h0zm-.424-2.692c-.035-.177-.353-.106-.282.07l.388 1.452c.035.177.353.106.282-.07l-.388-1.452zm.565 8.537l-1.376.638c-.176.07-.07.354.14.283l1.376-.638c.176-.07.07-.354-.14-.283h0zm-.247.815c-.14.142.07.354.212.213l.424-.425c.14-.142-.07-.354-.212-.213l-.424.425zm.6-11.796l.14 1.523c.035.213.318.142.318-.035l-.14-1.523c-.035-.177-.318-.142-.318.035h0zm-3.353 12.4l-.282.142c-.176.07-.07.354.14.283l.282-.142c.14-.106.035-.4-.14-.283h0zm.212-.956l-1.447.4c-.176.035-.106.354.07.283l1.447-.4c.212-.035.14-.354-.07-.283h0zm-1.624-1.452l1.518.142c.176.035.247-.283.035-.32l-1.518-.142c-.176 0-.247.283-.035.32h0zm.918.78c-.212.035-.14.32.035.32l.6-.035c.212-.035.14-.32-.035-.32l-.6.035zm-2.612-3.8l1.906.886c.176.07.282-.213.14-.283l-1.906-.886c-.212-.07-.318.213-.14.283h0zm3.6 2.196l-.6-.142c-.212-.035-.247.248-.07.283l.6.142c.176.07.247-.213.07-.283h0zm-1.235 0c.212.035.247-.248.07-.283l-.282-.07c-.212-.035-.247.248-.07.283l.282.07zm-2.118-4.038l-.494-.354c-.176-.106-.353.142-.176.248l.494.354c.176.106.353-.142.176-.248h0zm1.624-.142l1.06 1.063c.14.142.353-.07.212-.213l-1.06-1.063c-.14-.142-.353.07-.212.213h0zm-2.082 3.188l-.6-.142c-.212-.035-.247.248-.07.283l.6.142c.212.035.282-.248.07-.283h0zm5.54 2.657c.212-.035.14-.32-.035-.32l-1.518.142c-.212.035-.14.32.035.32l1.518-.142zm-2.54-7.156l-.176-.248c-.106-.177-.353 0-.247.177l.176.248c.14.142.388-.035.247-.177h0zm.988 8.714l.53-.248c.176-.07.07-.354-.14-.283l-.53.248c-.176.106-.07.4.14.283h0zM25 51.055l-2.047.53c-.176.035-.106.354.07.283l2.047-.53c.176-.035.14-.354-.07-.283h0zm-8.012 5.172l-.282.142c-.176.07-.07.354.14.283l.282-.142c.176-.106.07-.4-.14-.283h0zm.988-5.8l-1.306.106c-.212.035-.14.32.035.32l1.306-.106c.212-.035.14-.354-.035-.32h0zm.918 11.796l-.212.213c-.14.142.07.354.212.213l.212-.213c.14-.142-.07-.354-.212-.213h0zM15.54 44.962c.212.035.247-.248.07-.283l-.282-.07h-.035c0 .106-.035.213-.035.283l.282.07zm.847 2.692l-1.306-.106v.32l1.306.106c.14 0 .212-.283 0-.32h0zm3.353 13.674l-.424.425c-.14.142.07.354.212.213l.424-.425c.14-.142-.07-.354-.212-.213h0zm4.165-23.805c-.106-.177-.353 0-.247.177l.882 1.24c.106.177.353 0 .247-.177l-.882-1.24zm24 10.273c-.212.035-.14.32.035.32l.812-.07v-.32l-.847.07zM29.8 21.298l-.035-.213c-.106.07-.176.142-.282.213v.07c.035.177.318.106.318-.07h0zm17.682 49.984l.14.213-.14-.213zM19.847 57.644l-1.835 1.275c-.176.106 0 .354.176.248l1.835-1.275c.176-.142 0-.4-.176-.248h0zm-4.412-7.014c-.212.035-.14.32.035.32l.6-.035c.212-.035.14-.32-.035-.32l-.6.035zm31.94 21.042h0c.14.213.388.035.282-.142l-.035-.035c-.14-.142-.353.035-.247.177h0zm.388-6.872l-1.694-1.7c-.14-.142-.353.07-.212.213l1.694 1.7c.14.142.353-.07.212-.213h0zM22 56.12l-1.73 1.204c-.176.106 0 .354.176.248l1.73-1.204c.14-.106-.035-.354-.176-.248h0zm-.318 3.294l-.212.213c-.14.142.07.354.212.213l.212-.213c.14-.142-.07-.354-.212-.213h0zm-4.87-14.453l-.6-.142c-.212-.035-.247.248-.07.283l.6.142c.176.07.247-.248.07-.283h0zm3.6 7.616l2.047-.567c.176-.035.106-.354-.07-.283l-2.047.567c-.212.07-.14.354.07.283h0zm5.86 8.82c-.07.177.176.32.282.142l.14-.283c.07-.177-.176-.32-.282-.142l-.14.283zm-4.34-11.017c.212-.035.14-.32-.035-.32l-1.376.106c-.212.035-.14.32.035.32l1.376-.106zm4.87 3.897l-1.06 1.063c-.14.142.07.354.212.213l1.06-1.063c.14-.142-.07-.354-.212-.213h0zm-.106 2.41l-.882 1.24c-.106.177.14.354.247.177l.882-1.24c.106-.142-.14-.32-.247-.177h0zm-9.776-14.453l1.906.886c.176.07.282-.213.14-.283l-1.906-.886c-.212-.07-.318.213-.14.283h0zm.812-2.905l.494.354c.176.106.353-.142.176-.248l-.494-.354c-.176-.106-.353.142-.176.248h0zm-.494-.354c.176.106.353-.142.176-.248l-.247-.177c-.14-.106-.353.142-.176.248l.247.177zm4.094-5.172l-.353-.496c-.106-.177-.353 0-.247.177l.353.496c.106.177.353 0 .247-.177h0zm-.882 4.038l1.06 1.063c.14.142.353-.07.212-.213l-1.06-1.063c-.14-.177-.353.07-.212.213h0zm2.965 17.677l1.235-.886c.176-.106 0-.354-.176-.248l-1.235.886c-.176.106 0 .354.176.248h0zm3.53-2.87l-1.976 1.382c-.176.106 0 .354.176.248l1.976-1.382c.14-.106-.035-.354-.176-.248h0zm-1.87 3.755l.424-.425c.14-.142-.07-.354-.212-.213l-.424.425c-.14.142.07.354.212.213h0zm4.835-1.984l.14-.283c.07-.177-.176-.32-.282-.142l-.14.283c-.07.177.176.32.282.142h0zM28.6 57.148l.247-.53c.07-.177-.176-.32-.282-.142l-.247.53c-.07.213.176.32.282.142h0zm-.388.815l.14-.283c.07-.177-.176-.32-.282-.142l-.14.283c-.07.213.176.354.282.142h0zm1.835-5.562c.106-.177-.14-.354-.247-.177l-1.2 1.736c-.106.177.14.354.247.177l1.2-1.736zm-5.26.496l.53-.248c.176-.07.07-.354-.14-.283l-.53.248c-.14.106-.035.4.14.283h0zm2.47 3.472l1.376-1.984c.106-.177-.14-.354-.247-.177l-1.376 1.984c-.106.177.14.354.247.177h0zm-5.612-2.338l-.565.248c-.176.07-.07.354.14.283l.565-.248c.176-.07.07-.354-.14-.283h0zm2.788 3.01l.212-.213c.14-.142-.07-.354-.212-.213l-.212.213c-.14.142.07.354.212.213h0zm4.906-9.317l-1.376-.638c-.176-.07-.282.213-.14.283l1.376.638c.212.07.318-.213.14-.283h0zm-8.93 7.227l.282-.142c.176-.07.07-.354-.14-.283l-.282.142c-.14.07-.035.354.14.283h0zm2.26-6.447l2.118.177c.176.035.247-.283.035-.32l-2.118-.177c-.212 0-.247.32-.035.32h0zm.494 9.848l1.06-1.063c.14-.142-.07-.354-.212-.213l-1.06 1.063c-.14.142.07.354.212.213h0zm-.847-4.286l1.376-.638c.176-.07.07-.354-.14-.283l-1.376.638c-.14.07-.035.354.14.283h0zm9.106-6.872c.035.177.353.106.282-.07l-.07-.283c-.035-.177-.353-.106-.282.07l.07.283zm.106-.673l-.388-1.452c-.035-.177-.353-.106-.282.07l.388 1.452c.035.213.353.142.282-.07h0zm-.53 0l-.635-1.382c-.07-.177-.353-.07-.282.142l.635 1.382c.106.142.388.035.282-.142h0zm.247-5.562l.212 2.41c.035.213.318.142.318-.035l-.212-2.41c-.07-.213-.353-.142-.318.035h0zm-1.2 6.093c-.14-.142-.353.07-.212.213l1.482 1.488c.14.142.353-.07.212-.213l-1.482-1.488zm1.906-1.275l-.176-2.125c-.035-.213-.318-.142-.318.035l.176 2.125c.035.177.353.142.318-.035h0zm-.776 5.207l-.635 1.382c-.07.177.176.32.282.142l.635-1.382c.035-.177-.176-.32-.282-.142h0zm.388-.142l.14-.248c.07-.177-.176-.32-.282-.142l-.14.283c-.07.177.176.283.282.106h0zm-1.306 2.763l.247-.53c.07-.177-.176-.32-.282-.142l-.247.53c-.035.177.212.32.282.142h0zm1.412-4.393l-.6.035c-.212.035-.14.32.035.32h.212l.388-.035c.212-.035.176-.354-.035-.32h0zm-1.306 6.766L31 53.64c.035-.213-.247-.248-.282-.07l-.635 2.338c-.07.177.212.248.282.07h0zm1.165-6.235l-.882 1.24c-.106.177.14.354.247.177l.882-1.24c.106-.142-.14-.354-.247-.177h0zm-.565-.07c-.176.07-.07.354.14.283l.282-.142c.14-.07.106-.248-.035-.283h-.106l-.282.142zm-8.576.673l.318-.035c.212-.035.14-.32-.035-.32l-.318.035c-.212.035-.14.32.035.32h0zm8.435-1.417l-.67-.07c.212.035.247-.248.07-.283l-1.447-.4c-.212-.035-.247.248-.07.283l1.447.4-1.73-.142c-.176-.035-.247.283-.035.32l2.4.213c.176 0 .247-.283.035-.32h0zm-.318.708c.212-.035.14-.32-.035-.32l-.318.035c-.212.035-.14.32.035.32l.318-.035zm-.494-2.02c-.176-.106-.353.142-.176.248l.247.177c.176.106.353-.142.176-.248l-.247-.177zm-.176-.815l-1.694-1.7c-.14-.142-.353.07-.212.213l1.694 1.7c.14.177.353-.07.212-.213h0zm.176 4.676l.212-.213c.14-.142-.07-.354-.212-.213l-.212.213c-.14.142.07.354.212.213h0zm-1.482-4.924c-.14-.106-.353.142-.176.248l1.235.886c.14.106.353-.142.176-.248l-1.235-.886zm-.46-3.046l-.353-.496c-.106-.177-.353 0-.247.177l.353.496c.106.142.353-.035.247-.177h0zm-1.447 2.1l.247.177c.14.106.353-.142.176-.248l-.247-.177c-.14-.106-.318.106-.176.248h0zm1.8-1.594c-.106-.177-.353 0-.247.177l.882 1.24c.106.177.353 0 .247-.177l-.882-1.24zm-.882 1.877c-.176-.106-.353.142-.176.248l.494.354c.176.106.353-.142.176-.248l-.494-.354zm1.165 6.908l1.06-1.063c.14-.142-.07-.354-.212-.213l-1.06 1.063c-.14.106.07.354.212.213h0zm-3.812-5.35l1.447.4c.212.035.247-.248.07-.283l-1.447-.4c-.212-.035-.282.248-.07.283h0zm.988 4.96l1.376-.638c.176-.07.07-.354-.14-.283l-1.376.638c-.14.07-.035.354.14.283h0zm3.953-12.292c-.035-.177-.353-.106-.282.07l.14.602c.035.177.353.106.282-.07l-.14-.602zm3.565 7.97l.424-.425c.14-.142-.07-.354-.212-.213l-.424.425c-.14.106.07.354.212.213h0zm-4.2-2.444l.176.248c.106.177.353 0 .247-.177l-.176-.248c-.106-.142-.353.035-.247.177h0zm-4.06-1.098l1.235.886c.14.106.353-.142.176-.248l-1.235-.886c-.14-.106-.318.142-.176.248h0zm.353-4.782c-.106-.177-.353 0-.247.177l.353.496c.106.177.353 0 .247-.177l-.353-.496zm-3.388 2.303c-.176-.106-.353.142-.176.248l1.13.815c.176.106.353-.142.176-.248l-1.13-.815zm.812 4.57c-.212-.035-.247.248-.07.283l.282.07c.212.035.247-.248.07-.283l-.282-.07zm.494-3.294l.247.177c.14.106.353-.142.176-.248l-.247-.177c-.14-.106-.318.142-.176.248h0zm5.153-1.382l.882 1.913c.07.177.353.07.282-.142l-.882-1.913c-.07-.142-.353-.035-.282.142h0zm-7.482 4.5l1.447.4c.212.035.247-.248.07-.283l-1.447-.4c-.176-.07-.247.213-.07.283h0zm9.247.283l-.353-.496c-.106-.177-.353 0-.247.177l.353.496c.106.142.353-.035.247-.177h0zm-2.647-7.368c-.07-.177-.353-.07-.282.142l1.024 2.196c.07.177.353.07.282-.142l-1.024-2.196zm-1.765 1.56l.882 1.24c.106.177.353 0 .247-.177l-.882-1.24c-.106-.142-.353.035-.247.177h0zm.882-3.472c-.07-.177-.353-.07-.282.142l.635 1.382c.07.177.353.07.282-.142l-.635-1.382zM36.224 49.4l-1.518-.142c-.176-.035-.247.283-.035.32l1.518.142c.176 0 .247-.283.035-.32h0zm-1.66-30.36l-.035.602c-.035.177.282.248.318.035l.035-.602c0-.213-.318-.248-.318-.035h0zM33.47 31.394c-.035.177.282.248.318.035l.07-.602c.035-.177-.282-.248-.318-.035l-.07.602zm.106-1.204c-.035.177.282.248.318.035l.035-.32c.035-.177-.282-.248-.318-.035l-.035.32zm-.353 3.897c-.035.177.282.248.318.035l.035-.32c.035-.177-.282-.248-.318-.035l-.035.32zm-.282 3.33c-.035.177.282.248.318.035l.14-1.523c.035-.177-.282-.248-.318-.035l-.14 1.523zm-.07.602c-.035.177.282.248.318.035l.035-.32c.035-.177-.282-.248-.318-.035l-.035.32zm.776-8.714c-.035.177.282.248.318.035l.106-1.24c.035-.177-.282-.248-.318-.035l-.106 1.24zm-.53 6.022c-.035.177.282.248.318.035l.035-.602c.035-.177-.282-.248-.318-.035l-.035.602zm1.13-13c-.035.177.282.248.318.035l.035-.32c.035-.177-.282-.248-.318-.035l-.035.32zm-.424 5.137c-.035.177.282.248.318.035l.07-.602c.035-.177-.282-.248-.318-.035l-.07.602zm.494-5.845c-.035.177.282.248.318.035l.106-1.382c.035-.177-.282-.248-.318-.035l-.106 1.382zm-.176 1.913c-.035.177.282.248.318.035l.035-.602c.035-.177-.282-.248-.318-.035l-.035.602zm-.176 1.913c-.035.177.282.248.318.035l.106-1.275c.035-.177-.282-.248-.318-.035l-.106 1.275zm-.6 21.573c.07-.177-.176-.32-.282-.142l-.14.283c-.07.177.176.32.282.142l.14-.283zm-.07-13.71c-.035.177.282.248.318.035l.106-1.31c.035-.177-.282-.248-.318-.035l-.106 1.31zm-.6 20.9l-.176-2.125c-.035-.213-.318-.142-.318.035l.176 2.125c.035.213.353.142.318-.035h0zm.74 8.466l-.176-2.125c-.035-.213-.318-.142-.318.035l.176 2.125c.035.177.353.142.318-.035h0zm-.46-5.455l-.14-1.523c-.035-.213-.318-.142-.318.035l.14 1.523c.035.213.318.142.318-.035h0zm.247 3.01l-.212-2.41c-.035-.213-.318-.142-.318.035l.212 2.41c.035.213.353.177.318-.035h0zm.74 8.466l-.212-2.41c-.035-.213-.318-.142-.318.035l.212 2.41c.035.213.353.142.318-.035h0zm-.282-3.01l-.14-1.523c-.035-.213-.318-.142-.318.035l.14 1.523c.07.177.353.142.318-.035h0zm-1.13-23.734c-.035.177.282.248.318.035l.035-.32c.035-.177-.282-.248-.318-.035l-.035.32zm-.106 1.204c-.035.177.282.248.318.035l.035-.602c.035-.177-.282-.248-.318-.035l-.035.602zm-.353 3.932c-.035.177.282.248.318.035l.035-.602c.035-.177-.282-.248-.318-.035l-.035.602zm.494-5.74c-.035.177.282.248.318.035l.14-1.523c.035-.177-.282-.248-.318-.035l-.14 1.523zm.176-2.125c-.035.177.282.248.318.035l.035-.602c.035-.177-.282-.248-.318-.035l-.035.602zm1.412 31.882L34 69.227c-.035-.213-.318-.142-.318.035l.176 1.877c.035.213.353.142.318-.035h0zM32.2 45.883c-.035.177.282.248.318.035l.035-.32c.035-.177-.282-.248-.318-.035l-.035.32zm.035-.602c-.035.177.282.248.318.035l.14-1.523c.035-.177-.282-.248-.318-.035l-.14 1.523zM44.8 21.936l-.035.07c-.07.177.176.32.282.142l.035-.07c.07-.177-.176-.32-.282-.142h0zm-.247.567l-.635 1.382c-.07.177.176.32.282.142l.635-1.382c.07-.177-.176-.32-.282-.142h0zm-1.694 3.542l-.635 1.382c-.07.177.176.32.282.142l.635-1.382c.07-.177-.176-.32-.282-.142h0zm.776-1.63l-.247.53c-.07.177.176.32.282.142l.247-.53c.07-.177-.176-.32-.282-.142h0zm-.494 1.098l-.035.07c-.07.177.176.32.282.142l.035-.07c.07-.177-.176-.32-.282-.142h0zm3.07-6.59l-.635 1.382c-.07.177.176.32.282.142l.635-1.382c.07-.177-.176-.32-.282-.142h0zm-.882 1.948l-.247.53c-.07.177.176.32.282.142l.247-.53c.07-.213-.176-.354-.282-.142h0zm2.47 5.562l-1.376 1.984c-.106.177.14.354.247.177l1.376-1.984c.106-.177-.14-.354-.247-.177h0zm-.53 7.687l.424-.425c.14-.142-.07-.354-.212-.213l-.424.425c-.14.142.07.354.212.213h0zm-.46.496l.035-.035c.14-.142-.07-.354-.212-.213l-.035.035h-.035c-.14.142.106.354.247.213h0zm.176-17.323l-.247.53c-.07.177.176.32.282.142l.247-.53c.07-.177-.176-.32-.282-.142h0zm-.53 1.098l-.035.07c-.07.177.176.32.282.142l.035-.07c.07-.177-.176-.32-.282-.142h0zm1.447-3.01l-.635 1.382c-.07.177.176.32.282.142l.635-1.382c.035-.213-.176-.32-.282-.142h0zm-6.46 13.71l-.035.07c-.07.177.176.32.282.142l.035-.07c.07-.213-.176-.354-.282-.142h0zm-4.2-.106l-.565 2.125c-.035.213.247.248.282.07l.565-2.125c.07-.213-.212-.248-.282-.07h0zm.565-2.055l-.388 1.452c-.035.213.247.248.282.07L38.094 27c.07-.177-.247-.248-.282-.07h0zm.282 9.28l-.035.035c-.07.177.176.32.282.142l.035-.035c.07-.213-.176-.32-.282-.142h0zm-1.553-4.605l-.565 2.055c-.035.213.247.248.282.07l.565-2.055c.07-.177-.212-.248-.282-.07h0zm-.918 3.507l-.388 1.452c-.035.213.247.248.282.07l.388-1.452c.035-.177-.247-.248-.282-.07h0zm.176 6.695l.635-1.382c.07-.177-.176-.32-.282-.142l-.635 1.382c-.07.177.176.32.282.142h0zm-.74-4.64l-.635 2.338c-.035.213.247.248.282.07l.635-2.338c.07-.177-.212-.248-.282-.07h0zm3.706-13.745l-.565 2.055c-.035.213.247.248.282.07l.565-2.055c.035-.177-.247-.248-.282-.07h0zm3.212 4.57l-.247.53c-.07.177.176.32.282.142l.247-.53c.07-.213-.176-.354-.282-.142h0zm-1.694 3.542l-.247.53c-.07.177.176.32.282.142l.247-.53c.07-.177-.176-.32-.282-.142h0zm.918-1.913l-.635 1.382c-.07.177.176.32.282.142l.635-1.382c.07-.177-.176-.32-.282-.142h0zm-1.765-8.82l-.565 2.1c-.035.213.247.248.282.07l.565-2.1c.07-.213-.212-.283-.282-.07h0zM40 18.748l-.388 1.452c-.035.213.247.248.282.07l.388-1.452c.07-.213-.247-.248-.282-.07h0zm2.718 53.703c.07.177.353.07.282-.142l-1.024-2.196c-.07-.177-.353-.07-.282.142l1.024 2.196zm-2.33-55.156c-.035.213.247.248.282.07l.353-1.31c-.106.035-.212.07-.318.07l-.318 1.17zm-5.965 56.82l-.14-1.523c-.035-.213-.318-.142-.318.035l.14 1.523c.07.213.353.142.318-.035h0zm.176-55.723c-.035.177.282.248.318.035l.035-.283c-.106.035-.212.106-.318.142l-.035.106zm-12.282 10.13c.07.177.353.07.282-.142l-.212-.425c-.07.07-.14.177-.212.248l.14.32zm-2.93 8.218c.14.142.353-.07.212-.213l-1.518-1.523a1.06 1.06 0 0 1-.141.283l1.447 1.452zm27.918 34.29l-.882-1.24c-.106-.177-.353 0-.247.177l.882 1.24c.106.177.353 0 .247-.177h0zM16.67 38.62c.14.106.353-.142.176-.248l-.106-.07c0 .106-.035.177-.07.32h0zm31.34-12.54c-.106.142.14.354.247.177l.46-.673v-.496l-.706.992zm-.353 34.29l1.094.78v-.354l-.918-.638c-.176-.142-.353.07-.176.213h0zm.035-3.755l1.06.496v-.32l-.953-.425c-.176-.106-.282.177-.106.248h0zm.388 16.083c.106.177.353 0 .247-.177l-.353-.496c-.106-.177-.353 0-.247.177l.353.496zm-.035-34.858c-.176.106 0 .354.176.248l.494-.354v-.354l-.67.46zm.706 27.985l-.388-.4c-.14-.142-.353.07-.212.213l.6.567v-.4zm-1.13-12.257l1.13.32v-.32l-1.06-.283c-.176-.07-.247.248-.07.283h0zM19.988 32.42c.106.177.353 0 .247-.177l-.424-.602-.176.283.353.496zM47.8 82.795l-.247-.53c-.07-.177-.353-.07-.282.142l.212.46h.318c.035 0 .035-.035 0-.07h0zM16.53 42.057c.176.07.282-.213.14-.283l-.776-.354c-.035.106-.035.213-.07.32l.706.32zm8.188 22.636l-.14.283c-.07.177.176.32.282.142l.14-.283c.07-.177-.176-.32-.282-.142h0zm1.165 7.97c.035-.213-.247-.248-.282-.07l-.212.815.247.248.247-.992zm22.87.46l-.07-.106c-.106-.177-.353 0-.247.177l.318.46v-.53zm-.53-22.672c-.176-.035-.247.283-.035.32l.53.035v-.32l-.494-.035zm-18.46 26.533c0-.142-.106-.177-.212-.142.07.035.14.106.212.142h0zM17.694 59.52c.176-.106 0-.354-.176-.248l-.74.53.106.283.812-.567zm5.365 9.423c.07-.177-.176-.32-.282-.142l-.53 1.134c.07.07.14.177.212.248l.6-1.24zm-6.14-15.4c.176-.035.106-.354-.07-.283l-1.482.4c0 .106.035.213.035.32l1.518-.425zm-.424 3.26c.176-.07.07-.354-.14-.283l-.46.213c.035.106.035.213.07.283l.53-.213zm2.118 6.128c.14-.142-.07-.354-.212-.213l-.318.32c.035.106.106.213.14.283l.388-.4zm1.73 3.365c.106-.177-.14-.354-.247-.177l-.247.32.176.283.318-.425zm27.74-51.117a.17.17 0 0 0 .247 0h-.247zm-11.26 52.215c.035.177.353.106.282-.07l-.14-.602c-.035-.177-.353-.106-.282.07l.14.602zm.53 2.055c.035.177.353.106.282-.07l-.388-1.452c-.035-.177-.353-.106-.282.07l.388 1.452zm-.847-3.224c.035.177.353.106.282-.07l-.035-.142c-.035-.177-.353-.106-.282.07l.035.142zm-.176-.602c.035.177.353.106.282-.07l-.388-1.452c-.035-.177-.353-.106-.282.07l.388 1.452zm1.2 4.393c.035.177.353.106.282-.07l-.035-.142c-.035-.177-.353-.106-.282.07l.035.142zm.282 1.17c.035.177.353.106.282-.07l-.14-.602c-.035-.177-.353-.106-.282.07l.14.602zm.565 2.055c.035.177.353.106.282-.07l-.388-1.452c-.035-.177-.353-.106-.282.07l.388 1.452zM35.8 63.595c.035.177.353.106.282-.07l-.14-.602c-.035-.177-.353-.106-.282.07l.14.602zm11.012 17.712c.07.177.353.07.282-.142l-.247-.53c-.07-.177-.353-.07-.282.142l.247.53zM35.06 59.698l-.14-.602c-.035-.177-.353-.106-.282.07l.14.602c.035.213.353.142.282-.07h0zm-.14 19.873l-.14-1.7c-.035-.213-.318-.142-.318.035l.14 1.7c.035.177.353.142.318-.035h0zm.565-17.145c.035.177.353.106.282-.07l-.035-.07c-.035-.177-.353-.106-.282.07l.035.07zm-.176-.602c.035.177.353.106.282-.07L35.2 60.3c-.035-.177-.353-.106-.282.07l.388 1.452zm-.6 15.303l-.212-2.41c-.035-.213-.318-.142-.318.035l.212 2.41c.035.213.353.177.318-.035h0zm9.035-2.48c.07.177.353.07.282-.142l-.776-1.63c-.07-.177-.353-.07-.282.142l.776 1.63zm-2.012-5.066l-.635-1.382c-.07-.177-.353-.07-.282.142l.635 1.382c.07.142.353.035.282-.142h0zm3.318-1.77l-.882-1.24c-.106-.177-.353 0-.247.177l.882 1.24c.106.177.353-.035.247-.177h0zm2.647-29.756l-1.976 1.382c-.176.106 0 .354.176.248l1.976-1.382c.176-.106 0-.354-.176-.248h0zm-1.412 42.084c.07.177.353.07.282-.142L45.54 77.8c-.07-.177-.353-.07-.282.142l1.024 2.196zm-1.27-2.763c.07.177.353.07.282-.142l-.635-1.382c-.07-.177-.353-.07-.282.142l.635 1.382zm-6.494-3.542c.035.177.353.106.282-.07l-.035-.106c-.035-.177-.353-.106-.282.07l.035.106zm1.024 3.8c.035.177.353.106.282-.07l-.035-.106c-.035-.177-.353-.106-.282.07l.035.106zm-.14-.567c.035.177.353.106.282-.07l-.388-1.452c-.035-.177-.353-.106-.282.07l.388 1.452zM38.835 75c.035.177.353.106.282-.07l-.14-.602c-.035-.177-.353-.106-.282.07l.14.602zm1.588 5.845c.035.177.353.106.282-.07l-.388-1.452c-.035-.177-.353-.106-.282.07l.388 1.452zm-.565-2.055c.035.177.353.106.282-.07L40 78.12c-.035-.177-.353-.106-.282.07l.14.602zm.706 2.62c.035.177.353.106.282-.07v-.035c-.035-.177-.353-.106-.282.07v.035zM33.93 26.258c-.035.177.282.248.318.035l.035-.32c.035-.177-.282-.248-.318-.035l-.035.32zm5.26 15.587l-.424.425c-.14.142.07.354.212.213l.424-.425c.14-.142-.07-.354-.212-.213h0zm1.588 1.098L38.8 44.324c-.176.106 0 .354.176.248l1.976-1.382c.176-.142 0-.4-.176-.248h0zm-4.06 5.278l2.33-.638c.176-.035.106-.354-.07-.283l-2.33.638c-.176.035-.106.32.07.283h0zm1.165-5.1l-1.06 1.063c-.14.142.07.354.212.213l1.06-1.063c.14-.106-.07-.354-.212-.213h0zm.424-.425l-.212.213c-.14.142.07.354.212.213l.212-.213c.14-.142-.07-.354-.212-.213h0zm0 1.984l-1.235.886c-.176.106 0 .354.176.248l1.235-.886c.176-.142 0-.4-.176-.248h0zm2.788-4.747l-.212.213c-.14.142.07.354.212.213l.212-.213c.14-.142-.07-.354-.212-.213h0zM38.2 46.627l.282-.142c.176-.07.07-.354-.14-.283l-.282.142c-.176.07-.07.354.14.283h0zm3.74-1.736l.106-.07c.176-.07.07-.354-.14-.283l-.106.035c-.176.106-.07.4.14.32h0zm-.353 3.472l-1.518.142c-.212.035-.14.32.035.32l1.518-.142c.212-.07.176-.354-.035-.32h0zM37 51.303l-1.376-.638c-.176-.07-.282.213-.14.283l1.376.638c.212.07.318-.213.14-.283h0zm1.87-.07l.6.142c.212.035.247-.248.07-.283l-.6-.142c-.176-.07-.247.213-.07.283h0zm4.553-13.674l-1.06 1.063c-.14.142.07.354.212.213l1.06-1.063c.176-.142-.07-.354-.212-.213h0zM41.518 42.8l1.412-1.027c.176-.106 0-.354-.176-.248l-1.412 1.027c-.176.142 0 .4.176.248h0zm6.953-1.31l-1.376.638c-.176.07-.07.354.14.283l1.376-.638c.14-.07.035-.354-.14-.283h0zm-13.66 11.7l-.353-.496c-.106-.177-.353 0-.247.177l.353.496c.14.142.388-.035.247-.177h0zm-.494 1.134c.07.177.353.07.282-.142l-.635-1.382c-.07-.177-.353-.07-.282.142l.635 1.382zm-.6-2.196l.176.248c.106.177.353 0 .247-.177l-.176-.248c-.106-.177-.353 0-.247.177h0zm-.176-.248c.106.177.353 0 .247-.177l-.882-1.24c-.106-.177-.353 0-.247.177l.882 1.24zm2.647.07l-1.235-.886c-.14-.106-.353.142-.176.248l1.235.886c.176.106.353-.106.176-.248h0zm.318.602c.176.106.353-.142.176-.248l-.247-.177c-.176-.106-.353.142-.176.248l.247.177zm-1.376-6.624l-1.06 1.063c-.14.142.07.354.212.213l1.06-1.063c.14-.142-.07-.354-.212-.213h0zm-2.718 3.897l1.06 1.063c.14.142.353-.07.212-.213l-1.06-1.063c-.14-.142-.353.07-.212.213h0zm3.14-4.322l-.212.213c-.14.142.07.354.212.213l.212-.213c.14-.142-.07-.354-.212-.213h0zm.847-.85l-.424.425c-.14.142.07.354.212.213l.424-.425c.14-.142-.07-.354-.212-.213h0zm-.565 1.77l-1.73 1.204c-.176.106 0 .354.176.248l1.73-1.204c.176-.142-.035-.4-.176-.248h0zm-2.824 2.657l1.376-.638c.176-.07.07-.354-.14-.283l-1.376.638c-.176.07-.07.354.14.283h0zm3.53-1.665l1.376-.638c.176-.07.07-.354-.14-.283l-1.376.638c-.14.07-.035.354.14.283h0zm6.035-2.834l.53-.248c.176-.07.07-.354-.14-.283l-.53.248c-.176.106-.07.4.14.283h0zm-.953 5.314l-2.118-.177c-.176-.035-.247.283-.035.32l2.118.177c.212 0 .247-.32.035-.32h0zm-1.518 1.346c-.212-.035-.247.248-.07.283l1.447.4c.212.035.247-.248.07-.283l-1.447-.4zm-1.165-2.338l.6-.035c.212-.035.14-.32-.035-.32l-.6.035c-.212.035-.176.32.035.32h0zm-4.235-.142l1.447-.4c.176-.035.106-.354-.07-.283l-1.447.4c-.212.035-.14.32.07.283h0zm7.518-.46l-.318.035c-.212.035-.14.32.035.32l.318-.035c.176-.035.14-.354-.035-.32h0zm-6.776-.4l.53-.248c.176-.07.07-.354-.14-.283l-.565.248c-.106.106 0 .4.176.283h0zm-.282 2.02c-.212-.035-.247.248-.07.283l.6.142c.212.035.247-.248.07-.283l-.6-.142zm8.86-12.505l.07-.07c.14-.142-.07-.354-.212-.213l-.07.07c-.14.142.07.354.212.213h0zm-1.2 10.84c-.212.035-.14.32.035.32l.6-.035c.212-.035.14-.32-.035-.32l-.6.035zm-9.14-1.063l1.2-1.736c.106-.177-.14-.354-.247-.177l-1.2 1.736c-.106.177.14.354.247.177h0zm1.094-3.188c.07-.177-.176-.32-.282-.142l-.635 1.382c-.07.177.176.32.282.142l.635-1.382zm9.46 1.877l-1.447.4c-.176.035-.106.354.07.283l1.447-.4c.212-.035.14-.354-.07-.283h0zm-.565-8.537l.14-.142-.14.142zM42.153 51.8l-.07-.035c-.212-.035-.247.248-.106.283l.106.035c.212.035.282-.248.07-.283h0zm-3.812-2.87c.212-.035.14-.32-.035-.32l-.318.035c-.212.035-.14.32.035.32l.318-.035zm1.024-1.417l2.047-.53c.176-.035.106-.354-.07-.283l-2.047.53c-.212.035-.14.32.07.283h0zm-.14 2.16l-2.4-.213c-.176-.035-.247.283-.035.32l2.4.213c.212 0 .247-.32.035-.32h0zm.212-3.968l-.53.248c-.176.07-.07.354.14.283l.565-.248c.106-.07 0-.354-.176-.283h0zm-1.447 5.278l.282.07c.212.035.247-.248.07-.283l-.282-.07c-.176-.07-.247.248-.07.283h0zm2.118-5.243l1.376-.638c.176-.07.07-.354-.14-.283l-1.376.638c-.14.07-.035.354.14.283h0zm-5.118 3.188c-.212.035-.14.32.035.32l.6-.035c.212-.035.14-.32-.035-.32l-.6.035zm-.882.07c-.212.035-.14.32.035.32l.318-.035c.212-.035.14-.32-.035-.32l-.318.035zm.67-1.098l-.282.142c-.176.07-.07.354.14.283l.282-.142c.176-.106.07-.4-.14-.283h0zm1.482 2.62l1.447.4c.212.035.247-.248.07-.283l-1.447-.4c-.212-.07-.247.213-.07.283h0zm-.035-1.417l1.518-.142c.212-.035.14-.32-.035-.32l-1.518.142c-.212.07-.14.354.035.32h0zm-2.435 1.523l.494.354c.176.106.353-.142.176-.248l-.494-.354c-.14-.106-.318.142-.176.248h0zm.812-.886l-.282-.07c-.212-.035-.247.248-.07.283l.282.07c.176.07.247-.248.07-.283h0zm10.306-6.59l-1.376.638c-.176.07-.07.354.14.283l1.376-.638c.14-.07.035-.354-.14-.283h0zm-8.294 16.118c.07.177.353.07.282-.142l-.882-1.913c-.07-.177-.353-.07-.282.142l.882 1.913zm-.776-2.338l-1.024-2.196c-.07-.177-.353-.07-.282.142l1.024 2.196c.106.177.388.07.282-.142h0zm-1.518 1.098c.035.177.353.106.282-.07l-.388-1.452c-.035-.177-.353-.106-.282.07l.388 1.452zm.14.567c.035.177.353.106.282-.07l-.035-.07c-.035-.177-.353-.106-.282.07l.035.07zm3.6-.283c.106.177.353 0 .247-.177l-.882-1.24c-.106-.177-.353 0-.247.177l.882 1.24zM32.87 45.35l-.635 2.338c-.035.213.247.248.282.07l.635-2.338c.07-.177-.247-.248-.282-.07h0zm4.2 11.052l-.353-.496c-.106-.177-.353 0-.247.177l.353.496c.14.142.353-.035.247-.177h0zM33.435 54.8c.035.177.353.106.282-.07l-.07-.283c-.035-.177-.353-.106-.282.07l.07.283zm-1.024-3.826c.035.177.353.106.282-.07l-.07-.283c-.035-.177-.353-.106-.282.07l.07.283zm.035-2.055l.635-1.382c.07-.177-.176-.32-.282-.142l-.635 1.382c-.035.177.212.32.282.142h0zm1.306 7.05c.035.177.353.106.282-.07l-.14-.602c-.035-.177-.353-.106-.282.07l.14.602zm-1.024-3.8c.035.177.353.106.282-.07l-.14-.602c-.035-.177-.353-.106-.282.07l.14.602zm.565 2.02c.035.177.353.106.282-.07l-.388-1.452c-.035-.177-.353-.106-.282.07l.388 1.452zM37.882 62c.07.177.353.07.282-.142l-.635-1.382c-.07-.177-.353-.07-.282.142L37.882 62zm-.353-7.475l-1.482-1.488c-.14-.142-.353.07-.212.213l1.482 1.488c.14.142.353-.07.212-.213h0zm9.53-1.098c.212.035.247-.248.07-.283l-.6-.142c-.212-.035-.247.248-.07.283l.6.142zm-1.2-.32c.212.035.247-.248.07-.283l-.07-.035c-.212-.035-.247.248-.07.283l.07.035zm0 5.632l-1.235-.886c-.14-.106-.353.142-.176.248l1.235.886c.14.106.318-.142.176-.248h0zm1.8-8.325l-2.4-.213c-.176-.035-.247.283-.035.32l2.4.213c.176 0 .247-.32.035-.32h0zm-1.835 19.058c.106.177.353 0 .247-.177l-.353-.496c-.106-.177-.353 0-.247.177l.353.496zm2.93-27.844v-.283c-.14.07-.106.248 0 .283h0zM44.66 54.88l-1.376-.638c-.176-.07-.282.213-.14.283l1.376.638c.212.07.318-.213.14-.283h0zm-5.506 9.883c.07.177.353.07.282-.142l-1.024-2.196c-.07-.177-.353-.07-.282.142l1.024 2.196zm1.024 2.196c.07.177.353.07.282-.142l-.882-1.913c-.07-.177-.353-.07-.282.142l.882 1.913zm2.365-2.196c.106.177.353 0 .247-.177l-.847-1.24c-.106-.177-.353 0-.247.177l.847 1.24zm-2.012-3.4l-.882-1.24c-.106-.177-.353 0-.247.177l.882 1.24c.14.142.388-.035.247-.177h0zm3.035 4.89c.106.177.353 0 .247-.177l-.353-.496c-.106-.177-.353 0-.247.177l.353.496zm.53-8.75l-.494-.354c-.176-.106-.353.142-.176.248l.494.354c.176.106.353-.106.176-.248h0zm-7.13-18.846l-.247.53c-.07.177.176.32.282.142l.247-.53c.07-.177-.176-.32-.282-.142h0zm8.47 4.25l-.035.035c-.176.07-.07.354.14.283l.035-.035c.176-.106.07-.4-.14-.283h0zm-.706-6.624l-.424.425c-.14.142.07.354.212.213l.424-.425c.14-.142-.07-.354-.212-.213h0zm-.565 4.64l1.235-.886c.176-.106 0-.354-.176-.248l-1.235.886c-.176.106.035.354.176.248h0zm-1.2-7.545l-1.376 1.984c-.106.142.14.354.247.177l1.376-1.984c.106-.177-.14-.354-.247-.177h0zm-1.73 2.48l-.882 1.24c-.106.177.14.354.247.177l.882-1.24c.106-.177-.14-.354-.247-.177h0zm-1.412 5.774l1.06-1.063c.14-.142-.07-.354-.212-.213l-1.06 1.063c-.14.142.07.354.212.213h0zm1.906-1.913l.424-.425c.14-.142-.07-.354-.212-.213l-.424.425c-.14.142.07.354.212.213h0zm-3.353 19.058l.035.035c.106.177.353 0 .247-.177l-.176-.248.14.213c-.14-.177-.388 0-.247.177h0zm.847-4.322c.14.106.353-.142.176-.248l-1.235-.886c-.14-.106-.353.142-.176.248l1.235.886zm.53-1.877l-2.188-1.027c-.176-.07-.282.213-.14.283l2.188 1.027c.212.07.318-.213.14-.283h0zm.14 1.984l-.247-.177c-.176-.106-.353.142-.176.248l.247.177c.176.106.353-.142.176-.248h0zm2.576 2.16c.14.106.353-.142.176-.248l-1.235-.886c-.176-.106-.353.142-.176.248l1.235.886zm3.035-8.714l-1.518.142c-.212.035-.14.32.035.32l1.518-.142c.212-.035.14-.354-.035-.32h0zm-7.66-11.265l-.635 1.382c-.07.177.176.32.282.142l.635-1.382c.07-.177-.176-.32-.282-.142h0zm-2.576 5.49l-.247.53c-.07.177.176.32.282.142l.247-.53c.07-.213-.176-.32-.282-.142h0zm.247 1.807c-.106.177.14.354.247.177l.882-1.24c.106-.177-.14-.354-.247-.177l-.882 1.24zm4.27-11.407h0c-.106.213.14.354.247.177l.035-.035c.07-.177-.176-.32-.282-.142h0zm-5.012 10.698l-.14.283c-.07.177.176.32.282.142l.14-.283c.07-.213-.176-.32-.282-.142h0zm-.424-3.507l-.565 2.055c-.035.213.247.248.282.07l.565-2.055c.07-.213-.212-.283-.282-.07h0zm-.74 5.95l-.247.53c-.07.177.176.32.282.142l.247-.53c.07-.177-.176-.32-.282-.142h0zm2.824-6.022l-.14.283c-.07.177.176.32.282.142l.14-.283c.07-.177-.176-.32-.282-.142h0zm2.188-4.64l-.247.53c-.07.177.176.32.282.142l.247-.53c.07-.213-.176-.32-.282-.142h0zm-1.13 18.137c.14.106.353-.142.176-.248l-.494-.354c-.176-.106-.353.142-.176.248l.494.354zM39.54 33.2l-.635 1.382c-.07.177.176.32.282.142l.635-1.382c.035-.213-.176-.354-.282-.142h0zm-1.024 7.05l1.2-1.736c.106-.177-.14-.354-.247-.177l-1.2 1.736c-.106.142.14.354.247.177h0zm-5.082 3.082l-.388 1.452c-.035.213.247.248.282.07l.388-1.452c.035-.213-.247-.283-.282-.07h0zm4.66-3.01l-1.376 1.984c-.106.177.14.354.247.177l1.376-1.984c.14-.177-.106-.354-.247-.177h0z" fill="#f4d04e"/><path d="M22.212 61.15l.247-1.027c.14-.46.247-.886.494-1.275.424-.638.812-1.417.918-2.196.035-.213.14-.78.247-1.063.07-.213.212-.496.247-.673.035-.213.247-.425.353-.602.176-.248.282-.4.035-.602-.247-.07-.353-.035-.812-.07-.212-.07-.318-.035-.388-.142-.106-.142.035-.283.035-.425s.035-.283.106-.496c.035-.142.176-.283.14-.46-.035-.248-.74-.283-.882-.4-.035-.035-.282-.106-.565-.213-.318-.142-.53-.213-.74-.283-.706-.283-1.306-.248-2.082-.106-.353.07-.847.142-1.2.07-.176-.035-.424-.035-.565-.106-.14-.035-.247-.106-.388-.142-.46-.177-.988-.213-1.412-.53.07-.142.388-.354.494-.425.212-.106.353-.354.53-.496.106-.106.282-.213.353-.32.14-.142.388-.213.6-.354 1.094-.744 2.365-.32 3.53-.673.6-.177 1.235-.425 1.835-.673.988-.142-.353-.92-.176-1.17.282-.4.635-.567 1.024-.815.035-.07-.247-.32-.282-.4-.176-.354-.14-.708-.353-1.027-.247-.4-.565-.708-.953-.886-.106-.07-.282-.106-.388-.177-.14-.106-.212-.106-.318-.177-.14-.142-.318-.354-.53-.46a2.4 2.4 0 0 1-.424-.425c-.07-.106-.176-.177-.282-.354s-.14-.32-.282-.425c-.07-.142-.282-.4-.282-.567 0-.32-.353-.708-.53-.92-.106-.142-.353-.283-.247-.496.035-.142.53-.213.6-.177l.635.106.424.106c.07 0 .247.035.388.035s.353-.035.565.035l.776.213c0-.035.318.035.353.07.212.07.424.177.6.283.424.213.776.496 1.165.78.353.283.6.602.918.886.07.07.882.638.882.53 0 .035.07-.177.035-.07.035-.106.07-.177.106-.248l.176-.496c.035-.142.035-.46.212-.53.212-.106.635.035.847.035.424 0 .212-.248.212-.567-.07-.248.07-.673.176-.886.07-.213.353-.673.424-.886l.353-.673.247-1.204c.14-.638-.106-1.417-.106-2.055 0-.283.106-.53.106-.815 0-.248.247-.567.494-.32.106.07.035.213.14.283.106.106.14.177.14.177.035.142.247.425.353.496a2.6 2.6 0 0 0 .212.177c.07.106.212.4.424.673l.212.213c.176.213.353.4.494.638.388.638.494 1.204.67 1.913.07.248.07.53.14.815.07.354.106.638.035 1.027.035.248 0 .425.035.638.035.354.6.035.74-.07.212-.177.46-.248.706-.4.14-.07.424-.4.6-.283.106.07.212.496.247.602.106.248.318.956.6.992.6.07 1.094-.4 1.482-.815.424-.46.776-.992 1.165-1.452.6-.744 1.482-1.275 2.33-1.77.14-.106 1.376-1.063 1.235-.425-.106.46-.353.815-.494 1.275l-.176.46-.247.53c-.07.106 0 .248 0 .354a1.73 1.73 0 0 1-.141.39c-.14.283-.212.567-.282.886-.106.496-.46 1.063-.706 1.488-.176.283-.388.567-.6.815-.07.248-.53.354 0 .4.282.035.53.142.776.142.176 0 .635 0 .494.248s-.318.496-.318.78c-.07.248-.035.53-.07.78-.106.638.388.673.918.815.812.213 1.447.106 2.26-.07a5.61 5.61 0 0 1 1.059-.213c.388-.035.635.07.988.177.53.177.918.4 1.447.673.424.248.882.4 1.412.354.07.035.212-.106.247 0 .176.142-.035.248-.106.32-.176.106-.353.106-.565.213-.67.354-1.27.673-2.012.886-.494.142-.988.213-1.447.46-.388.213-.953.496-1.376.815-.494.177-.988.46-1.518.496-.67.07.388.992-.14 1.31-.212.142-.53.106-.74.248s-.424.248-.635.354c-.176.106-.494.07-.353.32.176.283.424.53.67.744.812.638 2.047.92 2.506 1.948l.74 1.913c.14.283.247.602.424.886a2.29 2.29 0 0 0 .282.319c.07.07.106.142.176.213a.37.37 0 0 0 .141.106c.106.106.247.248.176.425-.106.248-.46.035-.6 0-.282-.07-.565-.035-.847-.106s-.74-.106-.988-.283c-.07-.07-.812-.425-.882-.425l-.53-.283c-.176-.106-.388-.283-.635-.46-.176-.142-.424-.283-.6-.4-.212-.106-.46-.106-.706-.142-.318-.07-.46-.142-.882-.354-.176 0-.53-.142-.635-.213-.212-.106-.353-.248-.388.07-.035.177-.14.354-.176.567-.106.248-.106.46-.388.53-.247.07-.67-.106-.882-.142s-.565-.283-.53.035.106.602.176.92.176.602.212.92c.035.4-.07.744-.07 1.134-.035 1.24-.847 2.232-1.094 3.436-.106.567-.212 1.134-.14 1.7.035.213-.318.425-.353.142 0-.283-.14-.496-.247-.744-.14-.177-.282-.425-.353-.602-.106-.213-.282-.32-.388-.567-.14-.354-.424-.638-.565-.992-.247-.53-.212-1.17-.318-1.736-.07-.283-.106-.602-.176-.92-.07-.354-.318-.638-.424-.992-.07-.283-.176-.602-.176-.886 0-.142.035-.708-.14-.744-.353.106-.706.815-1.024.46-.176-.177-.247-.4-.424-.567l-.318-.32c-.176-.213-.247-.78-.6-.354-.247.32-.635.354-.918.638-.07.07-.212.142-.282.248s-.106.213-.176.32c-.106.248-.282.4-.424.744-.318.4-.565.78-.918 1.063s-.74.53-1.165.673l-1.13.425c-.388.177-.565.567-.953.78-.07.035-.53.4-.46.035-.07.035.07-.53.07-.496" fill="#08255a"/><path d="M22.848 60.16c.176-.496.247-.78.494-1.24a14.25 14.25 0 0 0 .847-1.63c.247-.602.388-1.204.53-1.877l.212-.46c.14-.213.176-.4.388-.744.176-.354.706-.815.882-.92l.635-.4c.14-.07.247-.283.388-.32.318-.106.812-.744.988-1.063.176-.283.106-.46-.212-.567-.388-.106-.74-.213-1.13-.248-.74-.035-1.447.106-2.153.283-.74.142-1.2.248-1.906 0-.388-.106-.988-.4-1.518-.496a5.59 5.59 0 0 0-.918-.142c-.635.07-1.27.142-1.906.106-.318 0-.6 0-.918-.106-.176-.035-.318-.106-.494-.177-.212-.106.07-.283.106-.32.318-.283.6-.354.882-.602l.353-.213c.106-.035.247-.035.353-.106.247-.106.424-.248.74-.213 1.06.106 2.153.07 3.14-.46.212-.106.46-.142.67-.248a1.26 1.26 0 0 1 .388-.142c.176-.07.212-.07.318-.106.318-.035.53-.177.847-.142.176 0 .353 0 .53-.035.14-.035.46.035.565-.035.353-.177.988.142 1.376.177.212.035.67.07.67-.283 0-.177-.635-.673-.776-.815l-1.553-1.134c-.247-.142-.46-.32-.67-.53-.106-.106-.46-.53-.494-.602a1.85 1.85 0 0 0-.212-.531l-.176-.354c-.106-.106-.247-.283-.318-.354 0 0-.565-.673-.74-.78-.388-.248-.388-.177-.812-.496 0 .035-.318-.213-.318-.213-.07-.035-.176-.106-.318-.283.07.07-.035-.035-.212-.213a2.48 2.48 0 0 1-.282-.354c-.07-.07-.176-.283-.212-.425l-.14-.354c-.14-.177-.212-.4-.318-.638.247 0 .494.07.776.106.212.035.494.035.706.106.176 0 .706.142.776.177a3.63 3.63 0 0 1 .565.177c.14.07.176.035.282.142l.353.248c.247.177.388.46.6.673.106.07.14.283.282.4.106.106.247.32.388.425.353.283.776.4 1.165.567.212.07.988.496 1.06.673.035.07.353.283.46.32.176.142.424.142.53.4l.882.744c.212.177.282.425.565.53.318-.213.212-.425.176-.78-.106-.708-.247-1.417-.46-2.125-.212-.638-.494-1.24-.635-1.877-.176-.956.318-1.736.706-2.55.212-.53.388-.956.424-1.56l.035-1.984c.035.07.106.07.14.142.14.142.07.106.176.213s.14.213.318.4c.176.213.176.177.282.32.176.213.353.425.46.673.176.4.353.708.424 1.204l.106.992c0 .354-.035.638.035 1.027 0 .248.035.46.07.673 0 .248.14.425.212.78l.46 1.382c.14.602.247 1.204.282 1.807l-.035.744c0 .177.07.283.282.142.106-.07.212-.213.282-.32.282-.354.46-.815.706-1.24.035-.425.565-.744.776-1.027.07-.07.176-.106.318-.177.176-.07.388-.177.565-.283.282-.106.776-.425 1.06-.53.46-.46.812-.992 1.235-1.488l.67-.815c.106-.142.318-.213.424-.354.035-.07.424-.354.635-.46.282-.248.706-.283.812-.567.106.035-.318.92-.353 1.063-.07.213-.07.4-.106.567-.035.213-.14.425-.176.673-.14.248-.176.638-.353.886-.14.213-.212.46-.388.638-.212.283-.388.46-.635.673-.812.638-.988 1.665-1.447 2.586-.247.46-.388.992-.74 1.417-.176.213-.882.567-.812.85.07.4.918-.177 1.13-.283.53-.142 1.024-.4 1.553-.425.565-.035 1.094 0 1.624.142.424.106.882.283 1.235.32.212 0 .424.07.67.07.282 0 .53-.142.812-.142.212 0 .494-.07.706-.142.212-.142.6-.106.847-.142s.53 0 .776.07a5.43 5.43 0 0 0 .6.177c.176.07 1.2.638 1.2.744.035.213-1.34.53-1.518.602l-1.87.567c-.565.248-1.024.638-1.624.815-.67.213-1.447.213-2.153.142-.53-.035-1.094-.213-1.66-.142-.46.07-.847.248-1.27.46-.106.035-1.165.602-.635.708.247.035.706.213.882.4.07.07.318.213.46.283.212.106.388.32.565.496.282.283.388.602.706.92l.247.4c.07.07.14.177.212.283.176.142.176.142.318.177.318.142.67.53 1.024.567.07-.035.353.177.388.213.176.142.353.32.494.354.388.177.6.78.74 1.134l.6 1.452c.14.425.494.78.635 1.204-1.34-.177-2.224-1.17-3.318-1.842-.53-.32-1.094-.602-1.66-.744-.67-.177-1.235-.354-1.694-.92-.176-.213-.282-.496-.46-.708-.176-.283-.46-.425-.706-.638s-.53-.4-.812-.567c-.14-.07-.776-.602-.812-.213-.07.283.212.53.282.78l.176.992c.07.602-.07 1.17-.14 1.77-.07.567-.035 1.098.07 1.665.14.708.424 1.452.318 2.196 0 .213-.07.496-.07.53a2.96 2.96 0 0 1-.141.531c-.14.32-.212.638-.353.956-.14.283-.212.567-.353.815-.106.213-.318.567-.282.78.035.283-.247-.142-.282-.213-.14-.213-.212-.425-.353-.638-.318-.602-.424-1.17-.494-1.842-.035-.32-.035-.638-.14-.956-.106-.4-.282-.708-.46-1.063-.212-.425-.247-.815-.282-1.275-.035-.425.14-.78.176-1.17 0-.425.07-.886-.035-1.275-.176-.32-.282-.85-.318-1.204-.035-.213-.035-1.063-.318-.956-.212.07-.282.602-.424.886-.46.673-.882 1.275-1.588 1.665l-1.2.638c-.318.177-.424.4-.776.708-.212.354-.46.53-.565.78-.14.283-.353.53-.565.92-.106.248-.494.53-.74.708-.318.213-.565.4-.988.496-.353.106-.6.248-.918.46-.247.177-.74.85-.494.106l.106-.142zm.918-.708c.247.142.67-.425.812-.602.176-.248.424-.4.6-.602l.74-.92a10.82 10.82 0 0 1 1.271-1.275c.14-.142.318-.283.46-.4.212-.177.46-.283.706-.496.14-.07.353-.177.388-.248.212-.248.46-.46.635-.744.318-.4.565-.815.706-1.275.035-.106.14-.248 0-.283s-.212-.07-.282.07l-.353.638c-.247.496-.67.992-1.13 1.31l-1.024.744c-.212.142-.424.32-.635.496-.035.035-.494.496-.353.142.07-.177.106-.354.14-.53.035-.142.176-.283.247-.496.212-.248.388-.53.635-.78.106-.106.424-.283.46-.32.176-.142.353-.177.494-.354.212-.248.388-.53.6-.815a2.26 2.26 0 0 0 .282-.496c.14-.32-.176-.602-.388-.283-.106.142-.07.248-.176.354l-.318.425c-.212.248-.46.496-.74.673-.424.496-.882.886-1.27 1.417-.53.708-.67 1.523-1.024 2.267-.106.213-.176.46-.247.673s-.247.354-.388.53c-.212.4-.67.673-.847 1.17h0zm9.706 2.8c.106-.283.106-.567.106-.886 0-.177.035-.354.035-.53.07-.213.106-.32.106-.425.07-.567.247-1.204.176-1.736a12.2 12.2 0 0 1-.106-2.267c.035-.4 0-.744.035-1.134s-.035-.744-.035-1.17c0-.32.035-.638-.106-.956-.14-.354-.635-.142-.494.106.176.744.176 1.56.212 2.267.035.673-.212 1.346-.14 2.055l.106 1.346c0 .142.14.567-.035.638-.14-.106-.14-.638-.176-.815-.07-.425-.176-.815-.14-1.24.07-.602.212-1.346-.106-1.913-.14-.283-.14-.567-.247-.85l-.282-.886c-.035-.142-.212-.744-.46-.53s-.035.78.07 1.027c.176.602.494 1.098.6 1.736.106.744-.106 1.452-.07 2.196s.388 1.452.53 2.16c.106.32.176.638.176.992 0 .248-.106.85.247.815h0zm-15.176-12.15c.353.07.494 0 .67-.035.353-.07.53 0 .847-.07.635-.142 1.13 0 1.765 0 .353 0 .812 0 1.13.177.14.07.282.177.388.248l.424.177c.212.035.318.07.494.07.247-.035.494-.035.706-.106.176 0 .74-.142.812-.177.14-.106.46-.106.67-.106.282 0 .6-.035.918 0 .212 0 .53.283.67 0 .212-.4-.388-.46-.635-.496-.706-.106-1.447.07-2.118.177-.353.035-.706.213-1.024.213-.388 0-.776-.213-1.094-.425.176-.106.353-.106.53-.177.212-.07.353-.213.46-.248.176-.035.53-.142.776-.142.318-.035.67-.07.988-.035.6.07 1.165.142 1.73-.035.106-.035.67-.106.388-.354-.176-.177-.424-.035-.635 0-.635.106-1.27.035-1.906-.035-.74-.035-1.34.106-2.012.4-.424.248-.953.283-1.376.46-.46.213-.882-.142-1.34 0-.14.035-.635.106-.953.177-.353.035-.635.035-.953.142-.106.035-.635.177-.6.283l.282-.07zm6.14 2.94c.247.142.6.213.882.142.07 0 .318-.32.388-.354.353-.32.918-.53 1.2-.886-.035-.106-.6.142-.776.213-.282.106-.494.213-.812.4l-.424.213c-.106.035-.247.142-.388.248l-.07.035zm5.86 4.038c.67.142.847-1.204.6-1.63-.212.07-.318.744-.353.92-.14.213-.176.46-.247.708h0zm-.565-.425c.212-.035.353-.46.388-.638 0-.07.353-.92.035-.708-.14.106-.424.425-.565.53-.353.248.035.53.14.815h0zm-5.118-4.322c.247-.07.318-.106.46-.177.282-.106.424-.177.706-.32.424-.177 1.13-.283 1.165-.53-.176 0-.46 0-.67.035l-1.13.177c-.176 0-.494.07-.6.248-.07.213-.353.602-.14.708l.212-.142zm10.165 3.8c-.035.248.07.354.282.425.176.035.53.213.67.213.106 0-.176-.673-.247-.815l-.565-1.098-.106.638c0 .213 0 .4-.035.638h0zm1.376.4c.247.213.247-.07.282-.354.035-.32-.14-.602-.353-.815-.07-.07-.53-.886-.706-.815l.388 1.063c.176.354.14.673.388.92h0zm-11.93-9.458c.14.07 1.376.07 1.482 0-.07-.035-1.694-.673-1.73-.602-.07.07.176.53.247.602h0zm.212-.992c-.353.142 1.588.708 1.765.744-.14-.142-.953-.744-1.13-.886-.035 0-.424.07-.424.07l-.212.07zm13.73 8.856c.106.035.353.177.424.213.212.106.424.213.67.283.353.142.706.32 1.06.53.67.4 1.024.815 1.482 1.417.07.106.212.283.388.213.282-.106 0-.354-.14-.53-.353-.4-.635-.815-.988-1.24s-.776-.78-1.2-1.134c-.46-.4-1.024-.78-1.34-1.31-.14-.213-.318-.354-.494-.567-.14-.177-.212-.354-.388-.496-.388-.248-.635-.602-1.024-.85-.176-.106-1.094-.638-1.094-.213 0 .248.812.602 1.024.708s.388.354.6.53c.14.106.212.283.318.425s.282.177.353.4.388.567.565.744c.176.142.388.283.494.46s.353.248.46.425c-.318.035-.812-.32-1.094-.496-.353-.213-.494-.567-.776-.85l-.74-.744c-.388-.32-.847-.567-1.306-.78-.14-.07-.318-.213-.46-.106-.176.142.07.283.176.4.424.283.882.53 1.27.886.6.53 1.024 1.24 1.765 1.7h0zm-8.082-2.586l.812.354c.282.177.635.142.953.177.212.035.424-.07.565-.07.247-.035.565-.07.776-.213.176-.07.424-.213.565-.248.176-.142.424-.213.6-.354.812-.602 1.27-1.736 1.376-2.728.176-1.275-.53-2.444-1.518-3.188-.918-.673-1.976-.85-3.106-.708-.46.07-1.165.4-1.518.708-.176.177-.388.248-.565.425-.106.106-.565 1.204-.6 1.417-.07.32-.07.638-.106.956 0 .248-.07.496-.07.708.035.53.318.92.565 1.417.282.567.776 1.027 1.27 1.346h0zm-3.812-6.624c.388.32.882.602 1.34.78.212.07.247.283.424.354.14.07.247.177.388.106.176-.106.176-.213.07-.4-.776-1.098-2.4-1.204-2.93-2.586.14-.07.282.213.424.248.14.142.212.07.388.142.212.106.388.283.635.4s.494.248.706.425c.282.248.635.744.988.886.494.213.07-.496 0-.602-.6-.708-1.412-1.382-2.33-1.736-1.306-.496-2.118-1.56-3.07-2.55-.388-.4-.6-.4-1.094-.673-.247-.142-.424-.177-.67-.248-.212-.035.035.32.212.46.318.248.247.177.6.4a1.33 1.33 0 0 1 .424.319l.388.4c.494.53 1.024.992 1.376 1.594l.706 1.098c.106.213.565.815.776.992a1.32 1.32 0 0 1 .247.213h0zm11.894 5.562c.176.177.282.425.53.46s.706-.283.882-.425l-.035-.035c-.212-.177-.776-.213-1.024-.283-.07 0-.106-.035-.247-.07-.176 0-.46 0-.494-.035.106.142.247.213.388.4h0zm-7.34-6.2c.106.177.282-.248.282-.283.035-.4-.106-.744-.212-1.098-.176-.638-.494-1.204-.635-1.842-.106-.496-.07-.956.07-1.382.212-.602.212.07.388.354.14.673.424 1.204.635 1.807.07.177.318 1.594.353 1.594.106.283-.035.602.106.85.318-.142.282-.496.282-.85 0-.78-.247-1.594-.53-2.338-.247-.638-.494-1.204-.6-1.877-.106-.602-.176-1.382-.07-1.948-.106-.283-.353-.32-.424 0 0 .142-.106.32-.106.4-.035.425-.282.744-.388 1.134l-.212.85c-.07.177-.035.4-.035.567 0 .32.035.567.14.92.106.602.353 1.17.494 1.7l.247.78c.14.248-.035.53.212.673h0zm5.365 3.86c.176.035.53-.142.67-.177.318-.106.53-.035.67-.07.6-.106 1.13-.07 1.73-.035.565.035 1.13.142 1.66 0s1.094-.354 1.588-.567c.247-.177.812-.283 1.024-.4.282-.07.494-.035.74-.106.212.035.67.07.74-.07.176-.4-1.27-.32-1.447-.32-.67 0-1.34.142-2.012.142-.67-.035-1.34-.177-2.012-.213-.318-.035-.6-.142-.918-.177-.353-.035-.74-.035-1.094 0-.565.07-.882.177-1.34.496-.388.283-.282.708.14.567.106-.035.212-.177.318-.213.247-.106.53-.177.812-.248.53-.106 1.024-.142 1.553-.07.494.07.918.213 1.412.248a7.35 7.35 0 0 0 .882.035c.035.035.565.07.565.106-.494.213-.953.177-1.482.177-.635 0-1.235 0-1.87-.035-.53-.035-1.024.106-1.553.213-.106.106-1.165.4-.776.708h0zm-8.894-6.59c.318.32.706.46 1.13.673l-.635-1.098c-.106-.142-.212-.354-.353-.425-.282-.177-.247.602-.318.673l.176.177zm11.224 8.04c.353.177.706.248 1.094.32.318.07.6.248.918.32.035-.4-.247-.496-.565-.53-.46-.035-.953-.142-1.447-.106.318.142 0 0 0 0h0zm-9.46-7.297c0-.283-.035-.638-.106-.886-.035-.213-.635-.815-.918-.744-.14 0 .953 1.736 1.024 1.63h0zm4.73 2.373c.212.32.988-1.063 1.094-1.204l.318-.425c.106-.142.176-.142.282-.248.176-.248.565-.248.776-.496.212.07-.14.46-.176.53-.14.283-.106.53-.247.78s-.212.496-.353.78c-.035.177-.212.4-.282.46-.07.142-.247.354-.247.46-.035.213.14.32.388.177s.247-.4.388-.602.282-.46.353-.673c.353-.886.6-1.7 1.2-2.41.282-.354.706-.638.953-1.063.424-.283.706-.815.988-1.24l.494-.708c.07-.142.106-.177.14-.248.07-.142.035-.142.106-.248s.176-.32.212-.46c.106-.283-.212-.213-.318-.035-.565.85-1.094 1.77-1.8 2.55-.07.106-.318.283-.424.4-.106.142-.388.4-.53.46-.212.106-.353.283-.565.4-.247.106-.494.248-.74.4-.494.283-.812.744-1.165 1.17-.176.213-.282.496-.46.744-.247.248-.424.496-.388.78h0zm4.235.425c.353 0 1.165.106 1.27-.248.035-.106.106-.886-.106-.638-.14.177-.282.32-.494.46-.106.035-.706.354-.67.425h0zm-4.588-3.613c.035.106 0 .177.106.213.14-.177.847-2.02.635-2.02-.106 0-.212.106-.353.142-.14.106-.424.213-.565.32-.14.07-.318.142-.176.354.176.213.318.673.353.992h0zm4.447 2.976c.212-.035 1.518-1.134 1.588-1.24-.424.142-.953-.283-1.2.283-.07.213-.176.425-.282.602-.035.177-.106.213-.106.354h0zm-3.388-3.046c.106-.142.565-.32.53-.496s-.176-.496-.388-.567c-.07.4-.388.815-.353 1.24 0-.035.176-.177.212-.177h0zm-3.847 9.813c.282.07.53.213.776.32.247.07.424.035.67.035.46-.035.882-.213 1.27-.425.6-.354 1.2-.85 1.588-1.417.353-.708.706-1.984.176-2.657-.176-.213-.353-.567-.565-.708-.282-.213-.494-.638-.812-.815-.353-.213-.6-.354-.988-.425-.282-.035-.53 0-.812-.035-.176-.035-.388-.035-.6.035-.74.213-1.376.46-1.94 1.027-.635.638-.67 1.594-.565 2.444.14 1.063.918 2.02 1.8 2.62h0zm-.212-1.204c.176.177.953.53 1.34.567.776.07 1.27-.248 1.906-.638.494-.283.812-1.134.776-1.736-.035-.744-.494-1.488-1.06-1.948-.6-.46-1.518-.4-2.188-.177-.247.177-.53.32-.776.53s-.318.4-.424.673c-.07.106-.212.496-.247.53-.07.32-.07.602-.035.956 0 .248.14.46.318.708.07.106.07.142.14.248l.247.283zm.635-.177c.918.53 2.224.32 2.682-.673.106-.213.212-.354.176-.602-.035-.283 0-.567-.106-.886-.14-.354-.53-.638-.847-.886-.74-.638-2.047-.46-2.506.496-.07.106-.14.177-.176.354-.035.213-.07.425-.07.673.106.602.282 1.24.847 1.523h0zm.46-.283c.353.142.635.142.74.106.318-.07.565-.213.776-.46.565-.673.565-1.417-.106-2.02-.6-.567-1.518-.142-1.94.4-.176.248-.212.46-.247.78.035.213.106.46.176.673.07.248.176.248.388.425l.212.106zm.565-.46c.247-.035.388-.035.565-.142.212-.106.282-.248.353-.46.035-.177.035-.425-.14-.567-.176-.213-.318-.248-.53-.283-.388-.106-.882-.106-1.06.32-.212.496.035 1.098.6 1.134h.212z" fill="#f4d04e"/><path d="M39.93 89.455a.76.76 0 0 1-.776-.779c0-.46.353-.78.812-.78.424 0 .776.354.776.815-.035.425-.424.744-.812.744m18.176.637c-.46 0-.74-.354-.74-.78a.74.74 0 0 1 .776-.779c.424 0 .776.354.776.815-.035.425-.424.744-.812.744m6.247-4.995l-.282.07c-.706-.92-1.835-1.63-3.07-1.17-.918.283-1.27 1.346-.67 2.16 1.024 1.452 4.165.4 4.906 2.586.424 1.098-.247 2.196-1.376 2.62-1.2.4-2.047-.248-2.047.708l-.212.07-1.13-2.338.282-.106c.635.956 1.73 1.63 2.753 1.275.706-.248 1.094-.815.847-1.56-.247-.638-1.13-.85-1.73-.992-1.87-.4-3.07-.53-3.53-1.877-.388-1.027.106-2.373 1.66-2.94 1.2-.4 2.294.177 2.118-.744l.247-.07 1.235 2.303zM71.34 87.8l.212-.106-.882-6.306c-.176-1.24-.318-2.196.282-2.62l-.106-.177-2.047 1.204.106.213c.353-.213.74-.32.953 0 .247.425.282 1.488.388 1.984l-2.718 1.594-.882-.638c-.953-.708-1.094-.92-.247-1.452l-.106-.213-2.647 1.523.106.213c.565-.4 1.13.106 1.588.425l6 4.357zm-.494-1.7l-2.93-2.16 2.435-1.452.494 3.613zm5.718-3.082c.212.283.318.708-.424 1.346l.14.177L79 82.157l-.106-.177c-.776.708-1.165.496-1.376.213l-3.953-4.605c-.247-.248-.353-.673.424-1.346l-.106-.177-2.788 2.373.176.177c.74-.638 1.165-.496 1.412-.213l3.882 4.605zm2.612-11.477c-.282-.213-.46-.602.07-1.24l-.14-.142-2.188 2.515.14.142c.6-.602 1.024-.53 1.27-.283l2.012 1.807-.424.53-4.694-.283-1.27 1.488.212.142c.353-.354.74-.425 1.235-.425l3.812.142c-.635.956-.882 2.125.106 2.976 1.024.956 2.33.53 3.67-1.027l2.153-2.4-.212-.142c-.565.638-.953.496-1.235.283l-4.518-4.074zm3.67 4.924c.46.4.353.46-.176 1.027-.706.85-1.624 1.134-2.506.354-.988-.85-.53-1.913.565-3.26l2.118 1.877zm5.54-6.2l.07-.213-3.988-4.924c-.812-.956-1.447-1.7-1.13-2.373l-.212-.142-1.094 2.16.212.07c.212-.4.46-.708.812-.496.388.213 1.06 1.098 1.376 1.488l-1.482 2.8-1.094-.106c-1.2-.106-1.412-.213-.988-1.134l-.212-.142-1.447 2.728.212.142c.318-.602 1.094-.53 1.624-.46l7.34.602zM87 69.095l-3.565-.354 1.306-2.444 2.26 2.8zm3.212-4.782c.318.07.67.354.424 1.346l.212.035.706-2.763-.212-.035c-.247.956-.67 1.027-1.024.92l-4.73-1.204 6.776-3.082.565-2.02-.247-.035c-.14.567-.282.638-.776.886l-.176.07-5.894-1.523c-.318-.07-.67-.354-.46-1.3l-.212-.106-.706 2.834.212.035c.247-.956.635-1.063 1.024-.92l5.365 1.382-7.8 3.507-.035.177 6.988 1.807zm3.388-12.86v-.248l-5.68-2.735c-1.165-.567-2.012-.92-2.012-1.665h-.247l-.106 2.4h.212c0-.425.14-.815.53-.815.424 0 1.412.602 1.87.744L88 52.26l-1.06.4c-1.094.4-1.306.4-1.34-.638h-.212l-.176 3.082h.247c-.035-.673.706-.886 1.2-1.063l6.953-2.586zm-1.73-.567l-3.353 1.24.106-2.763 3.247 1.523zm1.765-5.455v-.248c-1.024-.248-.14-.992-.424-2.62-.353-2.444-2.365-3.826-4.73-3.436-2.647.4-3.812 2.4-3.494 4.747.212 1.134.988 2.303 1.976 2.87l.212-.248c-.953-.708-1.447-1.452-1.624-2.62-.318-1.984 1.376-3.117 3-3.4 2.153-.32 3.882.248 4.2 2.267.176 1.346-.53 2.338-1.835 2.905l.07.283 2.647-.496zM89.13 29.198c1.34 2.87.953 5.1-1.518 6.235-2.26 1.027-4.306.213-5.682-2.763l-1.34-2.94.212-.07c.353.78.776.78 1.094.638l5.47-2.62c.353-.142.6-.46.247-1.24l.212-.106 1.306 2.87zm-6.882 2.976c.953 2.267 2.753 3 4.8 2.125 2.118-1.063 2.612-2.976 1.66-5.03-.247-.496-.318-.567-.847-.32l-2.435 1.134.6 1.3c.353.744.847 1.275 1.694.886l.106.213-2.576 1.204-.106-.248c.847-.4.776-1.134.46-1.842l-.635-1.382-2.435 1.134c-.388.248-.353.567-.282.815h0zm.14-13l-.14-.177-6.035 2.055c-1.2.4-2.047.78-2.576.248l-.176.142 1.588 1.807.14-.106c-.282-.354-.46-.744-.176-.956.353-.32 1.412-.602 1.835-.815l2.118 2.373-.494.992c-.46 1.063-.67 1.24-1.376.496l-.176.177 2.047 2.303.176-.142c-.46-.496-.14-1.17.07-1.665l3.176-6.73zm-1.588.815l-1.553 3.26-1.87-2.055L80.8 20zm-2.718-5.207l-.212-.177c-.953.567-.812-.602-2.153-1.56-1.94-1.488-4.376-1.027-5.824.886-1.553 2.16-.953 4.463.918 5.8a4.22 4.22 0 0 0 3.424.673v-.32c-1.165.177-2.047.035-3-.673-1.588-1.17-1.235-3.188-.247-4.57 1.27-1.77 2.965-2.515 4.553-1.382 1.13.815 1.27 2.125.812 3.365l.212.177 1.518-2.232zm-8.4-4.286c.106-.283.494-.53 1.376-.07l.106-.213-3.212-1.665-.14.213c.882.425.882.886.74 1.17l-2.86 5.42c-.106.32-.46.567-1.34.106l-.14.213 3.212 1.7.106-.213c-.882-.496-.847-.886-.706-1.24l2.86-5.42zM59.06 13.86l.212.07c.424-.815.953.354 2.118.78 1.518.53 2.788-.177 3.176-1.204.494-1.346-.388-2.267-1.588-3.755-.353-.46-.882-1.17-.67-1.877.282-.708.918-.92 1.588-.673 1.06.354 1.482 1.594 1.376 2.728l.282.07.635-2.515-.212-.07c-.565.78-.812-.248-2.047-.744-1.094-.4-2.294.035-2.682 1.17-.776 2.16 2.294 3.365 2.188 5.172-.07.956-.988 1.56-1.94 1.17-1.165-.4-1.624-1.63-1.624-2.834l-.212-.07-.6 2.586zm-.106-7.475c.07-.32.353-.673 1.306-.425l.07-.248-3.565-.815-.07.248c.988.213 1.094.638 1.024.992l-1.306 5.95c-.106.32-.353.708-1.34.46l-.035.213 3.53.78.035-.248c-.953-.177-1.06-.602-1.024-.992l1.376-5.916zm-6.67 6.058v-.213c-.847-.106-1.024-.496-.953-.85l.247-2.94 1.553.142c.847.07 1.447.32 1.412 1.275h.282l.212-2.834H54.8c-.07.956-.776 1.134-1.588 1.027l-1.588-.142.212-2.62c0-.283.14-.46.53-.425l1.588.142c.847.07 1.588.07 1.624 1.346l.282.07.14-1.736-6.388-.567v.213c.847.142 1.024.496 1.024.886L50.06 11.3c-.035.32-.247.673-1.13.638l-.07.213 3.424.283zm-3.706-4.357c-.282-2.55-2.26-4.038-4.306-3.72-2.33.213-3.776 2.16-3.53 4.534.282 2.55 2.26 3.968 4.376 3.8 2.365-.32 3.706-2.232 3.46-4.605h0zm-6.46.708C41.87 6.5 42.506 5.1 44.27 4.8c1.906-.213 2.753 1.56 2.965 3.436.212 1.275-.07 3.613-2.153 3.968-1.412.32-2.718-.92-2.965-3.4h0zm-7.482 5.314c.106.32.035.78-.74 1.063l.07.213 3.176-1.027-.07-.213c-.847.248-1.165-.035-1.27-.4l-.847-2.62.635-.213 3.882 2.62 1.835-.602-.07-.213c-.53.106-.918-.035-1.306-.283l-3.212-2.1c1.06-.496 1.87-1.382 1.447-2.586-.46-1.346-1.835-1.63-3.74-.992l-2.965.956.07.213c.812-.248 1.13.035 1.2.4l1.906 5.774zm-.706-6.093c-.176-.53-.07-.602.706-.815.988-.4 1.976-.177 2.33.992.424 1.24-.494 1.913-2.118 2.515l-.918-2.692zm-1.447 7.97c-.74.4-1.13.177-1.27-.106L28 10.14l.74-.4c.812-.425 1.306-.708 2.26.53l.247-.142-1.094-1.77-6 3.33.988 1.842.247-.106c-.494-1.488 0-1.77.74-2.196l.74-.425 3.212 5.703c.176.32.212.744-.565 1.17l.106.213 2.894-1.665-.035-.248zm-8.118 6.058l.212-.142c-.494-.744.776-.638 1.73-1.417 1.27-1.063 1.235-2.515.565-3.365-.918-1.098-2.082-.815-3.988-.567-.635.106-1.518.213-1.976-.354s-.318-1.24.247-1.7c.847-.708 2.118-.46 3.035.213l.247-.213L22.6 12.7l-.212.142c.353.886-.67.567-1.66 1.382-.882.744-1.13 1.984-.353 2.905 1.447 1.842 4.06-.213 5.506.78.776.567.847 1.63.07 2.232-.988.85-2.294.567-3.318-.07l-.212.142 1.94 1.842zm-9.282-1.984l-.176.213 2.824 5.632c.565 1.134 1.06 1.984.6 2.586l.14.142 1.553-1.807-.212-.142c-.247.32-.6.53-.918.283-.318-.32-.74-1.3-.988-1.736l2.047-2.444 1.094.354c1.094.32 1.306.496.635 1.3l.212.177 2.047-2.373-.212-.106c-.424.53-1.13.213-1.66.07l-6.988-2.16zm1.024 1.452l3.424 1.098-1.8 2.125-1.624-3.224zm-8.012 9.565c1.27-2.8 3.247-4.003 5.682-2.834 2.294.956 2.965 3.153 1.66 6.093L14.13 37.24l-.212-.106c.318-.815.07-1.134-.247-1.275l-5.506-2.48c-.318-.142-.74-.142-1.165.673l-.176-.106 1.27-2.87zm6.776 3.365c1.13-2.196.46-4.1-1.588-4.995-2.118-1.027-3.882-.07-4.835 1.984-.212.53-.212.602.318.886l2.435 1.098.6-1.382c.318-.744.424-1.452-.424-1.842l.07-.213 2.576 1.17-.14.213c-.812-.4-1.34.142-1.66.886l-.6 1.346 2.47 1.134c.388.177.67-.035.776-.283h0zm-5.54 4.853c-2.54-.4-4.518 1.204-4.694 3.33-.388 2.303 1.2 4.18 3.565 4.5 2.54.354 4.376-1.24 4.73-3.33.282-2.4-1.34-4.18-3.6-4.5h0zm-.918 6.518c-2.294-.354-3.494-1.3-3.353-3.117.247-1.877 2.188-2.303 4.06-2.02 1.306.106 3.46.956 3.318 3.117-.07 1.417-1.588 2.338-4.024 2.02h0zm3.635 3.507c.035.92-.318 1.098-.706 1.134l-6.53.354-.035-.886c-.035-.886-.07-1.488 1.447-1.77v-.32l-2.082.177.388 6.837h2.047l-.035-.32c-1.553-.177-1.588-.708-1.624-1.63l-.035-.886 6.53-.32c.318-.035.74.142.776.992h.247l-.212-3.365h-.176zm-.776 12.576c2.118-.602 2.894-1.7 2.33-3.8-.176-.496-.424-1.098-.67-1.417-.988-1.17-2.047-1.027-3.388-.673l-3.67.956c-.318.106-.74 0-1.024-.92l-.212.07.706 2.692.212-.035c-.212-.92.106-1.204.46-1.275l3.67-.956c1.13-.283 2.788-.708 3.353 1.488.353 1.452-.212 2.196-2.012 2.657L7.11 61.71c-.318.106-.74.035-.988-.85l-.212.07.812 3.26.247-.07c-.212-.886.07-1.134.46-1.204l3.847-1.027zm3.776 1.63c.388.78.07 1.134-.212 1.3l-5.86 2.834-.388-.78c-.388-.815-.67-1.3.635-2.196l-.106-.283-1.835.956 2.965 6.164 1.87-.815-.106-.248c-1.482.425-1.765-.07-2.118-.85l-.388-.78 5.894-2.87c.353-.142.74-.142 1.13.638l.212-.106-1.447-3-.247.035zm-2.718 9.2c-.282.177-.74.248-1.27-.567l-.176.106L12.86 75.3l.212-.177c-.6-.78-.353-1.204-.07-1.417l5.047-3.33c.282-.177.74-.248 1.27.567l.212-.177L17.52 67.8l-.176.106c.565.85.353 1.204.035 1.417l-5.047 3.4zm7.976-.425c.6.673.424 1.027.176 1.275l-4.87 4.357-.6-.638c-.6-.673-.953-1.098.035-2.338l-.212-.213-1.482 1.417 4.518 5.137 1.588-1.3-.176-.213c-1.34.815-1.73.4-2.294-.283l-.565-.638 4.87-4.357c.247-.213.67-.32 1.27.283l.176-.106-2.26-2.515-.176.142zm7.94 6.872l-.212-.177c-.67.602-.776-.602-1.765-1.417-1.27-1.027-2.682-.744-3.353.177-.918 1.134-.388 2.196.282 4.038.247.567.494 1.382.07 1.984-.46.602-1.13.567-1.694.106-.918-.673-.882-1.913-.424-2.976l-.212-.213-1.447 2.232.212.142c.812-.496.706.567 1.73 1.346.918.744 2.188.708 2.894-.248 1.447-1.807-1.094-3.932-.424-5.562.353-.92 1.376-1.134 2.188-.53 1.024.78.988 2.125.635 3.224l.212.177 1.306-2.303zm-2.435 7.156c-.176.283-.494.602-1.412.106l-.07.213 2.54 1.3.106-.213c-.882-.425-.847-.886-.706-1.17l2.224-4.322 1.482 7.262 1.835.992.07-.213c-.53-.32-.565-.425-.706-.956l-.035-.177 2.824-5.5c.176-.32.53-.53 1.412-.106l.07-.213-2.576-1.346-.07.213c.882.46.882.886.706 1.24L31 88.392l-1.73-8.396-.14-.106-3.318 6.447zm9.282 4.463c-.07.32-.388.638-1.34.32l-.035.248 3.388 1.098.07-.213c-.953-.283-.988-.744-.918-1.063l1.87-5.845c.07-.32.388-.638 1.34-.32l.035-.248-3.46-1.063-.035.213c.918.32.988.708.918 1.063l-1.835 5.8z" fill="#08255a"/><path d="M43.706 92.253c-.106.567.14.992.776 1.098l-.035.248-3.318-.496.07-.213c.6.106.953-.283.988-.85l.776-5.278c.07-.602-.176-1.027-.776-1.098v-.213l3.282.425v.248c-.635-.07-.988.248-1.06.815l-.706 5.314zm4.2-6.235l-2.54 6.73c-.247.638-.46.708-.74.708v.248h1.94v-.213c-.67-.035-.847-.425-.67-.992l.353-1.027 2.224.07.46 1.275c.14.602-.424.708-.847.673v.213l3.035.07v-.248c-.14 0-.494.035-.635-.496l-2.26-7.085-.318.07zm-1.447 5.03l.988-2.834.882 2.905-1.87-.07zm9.74-5.74l-.212.035c-.212.46-.212.673-1.024.425-.494-.142-.918-.213-1.376-.177-.6.106-1.27.4-1.835.956-.776.78-1.13 2.125-.953 3.472.14 1.346.812 2.586 1.765 3.153a3.54 3.54 0 0 0 2.012.496c.53-.07.812-.177 1.024-.283.953-.46 1.235-1.24 1.447-1.63l-.282-.283c-.212.4-.635 1.204-1.447 1.523-.635.248-1.165.248-1.553.07-.388-.213-.635-.496-.918-1.098a7.53 7.53 0 0 1-.494-2.125c-.07-.886-.106-1.63 0-2.16.106-.78.318-1.204.706-1.523.14-.142.353-.213.53-.213.14-.035.282-.035.494-.035 1.306.248 1.94 1.665 2.153 2.055h.247L56.2 85.3z" fill="#4c9fdc"/><path d="M61.918 43.013l1.024 2.657 2.647 1.027-2.647 1.027-1.024 2.657-1.024-2.657-2.647-1.027 2.647-1.027 1.024-2.657zm-4.553-2.62l-1.27.496 1.27.496.494 1.275.494-1.275 1.27-.496-1.27-.496-.494-1.275-.494 1.275zm4.518-5.562l-1.27.496 1.27.496.494 1.275.494-1.275 1.27-.496-1.27-.496-.494-1.275-.494 1.275zm-9.424-1.17l-1.27.496 1.27.496.494 1.275.494-1.275 1.27-.496-1.27-.496-.494-1.275-.494 1.275zm-.106-8.148l-1.412.53 1.412.53.53 1.417.53-1.417 1.412-.53-1.412-.53-.53-1.417-.53 1.417zm2.47-5.207l-1.412.53 1.412.53.53 1.417.53-1.417 1.412-.53-1.412-.53-.53-1.417-.53 1.417zm8.753 3.224l-1.306.496 1.306.496.494 1.31.494-1.31 1.306-.496-1.306-.496-.494-1.31-.494 1.31zm-6.53 7.333l-2.118.815 2.118.815.812 2.125.812-2.125 2.118-.815-2.118-.815-.812-2.125-.812 2.125zm9.494-1.24l-1.306.496 1.306.496.494 1.31.494-1.31 1.306-.496-1.306-.496-.494-1.31-.494 1.31zm6.14.177l-1.306.496 1.306.496.494 1.31.494-1.31 1.306-.496-1.306-.496-.494-1.31-.494 1.31zm-1.835 5.137l-2.153.85 2.153.815.847 2.16.847-2.16 2.153-.815-2.153-.85-.847-2.16-.847 2.16zm5.4 3.436l-1.835.708 1.835.708.706 1.842.706-1.842 1.835-.708-1.835-.708-.706-1.842-.706 1.842zm-3.53 5.42l-1.376.53 1.376.53.53 1.382.53-1.382 1.376-.53-1.376-.53-.53-1.382-.53 1.382zm-5.54 6.66l-1.376.53 1.376.53.53 1.382.53-1.382 1.376-.53-1.376-.53-.53-1.382-.53 1.382zm9.635-2.125l-1.624.638 1.624.638.635 1.63.635-1.63 1.624-.638-1.624-.638-.635-1.63-.635 1.63zM55.176 50.63l-1.8.708 1.8.708.706 1.807.706-1.807 1.8-.708-1.8-.708-.706-1.807-.706 1.807zm2.576 15.374l-2.082.815 2.082.815.812 2.1.812-2.1 2.082-.815-2.082-.815-.812-2.1-.812 2.1zm11.365 2.976l-2.082.815 2.082.815.812 2.1.812-2.1 2.082-.815-2.082-.815-.812-2.1-.812 2.1zm1.87-14.95l-1.553.602 1.553.602.6 1.56.6-1.56 1.553-.602-1.553-.602-.6-1.56-.6 1.56zm-4.8 10.663l-1.553.602 1.553.602.6 1.56.6-1.56 1.553-.602-1.553-.602-.6-1.56-.6 1.56zM53.06 76.24l-1.553.602 1.553.602.6 1.56.6-1.56 1.553-.602-1.553-.602-.6-1.56-.6 1.56zm6.67-.354l-1.34.53 1.34.53.53 1.346.53-1.346 1.34-.53-1.34-.53-.53-1.346-.53 1.346zm3.035-4.11l-1.34.53 1.34.53.53 1.346.53-1.346 1.34-.53-1.34-.53-.53-1.346-.53 1.346zm4.8-12.646l-1.34.53 1.34.53.53 1.346.53-1.346 1.34-.53-1.34-.53-.53-1.346-.53 1.346zm7.87-2.763l-1.34.53 1.34.53.53 1.346.53-1.346 1.34-.53-1.34-.53-.53-1.346-.53 1.346zm-1.094 5.987l-1.34.53 1.34.53.53 1.346.53-1.346 1.34-.53-1.34-.53-.53-1.346-.53 1.346zM53.2 58.883l-1.34.53 1.34.53.53 1.346.53-1.346 1.34-.53-1.34-.53-.53-1.346-.53 1.346zm-.988 9.14l-1.34.53 1.34.53.53 1.346.53-1.346 1.34-.53-1.34-.53-.53-1.346-.53 1.346zm5.47-12.292l-1.165.46 1.165.46.46 1.17.46-1.17 1.165-.46-1.165-.46-.46-1.17-.46 1.17z" fill="#fff"/></svg>