<svg xmlns="http://www.w3.org/2000/svg" xmlns:xlink="http://www.w3.org/1999/xlink" width="1036.339" height="1019.928" viewBox="0 0 1036.339 1019.927"><style><![CDATA[.B{fill:none}.C{stroke-width:13.998}.D{stroke-width:13.999}.E{stroke-width:14.28}.F{stroke-width:12.535}]]></style><g stroke="#0b0000" class="B"><path d="M207.864 444.034v96.8" class="C"/><g class="D"><use xlink:href="#B"/><path d="M127.663 410.776l80.2 33.257 77.19-32.57"/></g><path d="M830.506 445.41v96.8" class="C"/><g class="D"><use xlink:href="#B" x="622.642" y="1.374"/><path d="M750.305 412.15l80.2 33.257 77.19-32.57"/></g><path d="M519.185 444.72v96.8" class="C"/><g class="D"><use xlink:href="#B" x="311.321" y="0.688"/><path d="M438.984 411.464l80.2 33.257 77.19-32.57"/></g><path d="M210.877 809.397v96.8" class="C"/><g class="D"><use xlink:href="#B" x="3.013" y="365.364"/><path d="M130.676 776.14l80.2 33.257 77.19-32.57"/></g><path d="M524.463 808.448v96.8" class="C"/><g class="D"><use xlink:href="#B" x="625.655" y="366.739"/><path d="M753.318 777.515l80.2 33.257 77.19-32.57"/></g><path d="M833.52 810.772v96.8" class="C"/><g class="D"><use xlink:href="#B" x="316.599" y="364.424"/><path d="M444.262 775.2l80.2 33.257 77.19-32.57"/></g><path d="M519.185 541.51v202.747" class="E"/><path d="M750.305 412.15h-153.93m-157.39-.687h-153.93" class="F"/><path d="M830.506 542.198v202.747M207.864 540.823V743.57" class="E"/><g class="D"><use xlink:href="#B" x="-3.013" y="-254.45"/><path d="M124.65 156.326l80.2 33.257 77.19-32.57"/></g><path d="M204.852 189.583v96.8" class="C"/><path d="M204.852 286.373v91.833" class="F"/></g><defs ><path id="B" d="M127.663 410.776v96.8l80.2 33.257 77.19-32.57v-96.8l-80.2-33.257z"/></defs></svg>
