<svg xmlns="http://www.w3.org/2000/svg" width="1136.584" height="334.663" xmlns:v="https://vecta.io/nano"><circle fill="#003d8c" cx="129.482" cy="29.567" r="29.568"/><path d="M102.286 192.37l-86.2-49.775C6.194 160.464.413 180.913 0 202.68h99.536a29.53 29.53 0 0 1 2.75-10.309zm2.5 29.95L18.58 272.102a130.18 130.18 0 0 0 43.984 43.982l49.782-86.215a30.44 30.44 0 0 1-7.549-7.55zm-5.26-14.64H0c.412 21.77 6.195 42.223 16.08 60.094L102.296 218a29.66 29.66 0 0 1-2.76-10.32zm12.8-27.2L62.564 94.276a130.16 130.16 0 0 0-43.988 43.988l86.22 49.775a30.26 30.26 0 0 1 7.55-7.55zm41.82 7.56l86.224-49.783a130.19 130.19 0 0 0-43.991-43.992L146.626 180.5c2.94 2.05 5.5 4.6 7.54 7.56zm-27.18-12.82V75.7c-21.77.4-42.22 6.193-60.092 16.077L116.664 178a29.66 29.66 0 0 1 10.32-2.76zm32.45 27.45h99.528c-.413-21.764-6.193-42.213-16.075-60.082l-86.213 49.773a29.76 29.76 0 0 1 2.76 10.309zm-17.14-24.7l49.772-86.205C174.2 81.893 153.75 76.112 131.986 75.7v99.53c3.66.3 7.14 1.25 10.3 2.75zm-10.3 57.15v99.533c21.766-.414 42.214-6.195 60.083-16.078l-49.772-86.205a29.55 29.55 0 0 1-10.31 2.75zm14.64-5.26l49.774 86.215c17.985-10.875 33.1-26 43.987-43.986l-86.22-49.78a30.22 30.22 0 0 1-7.54 7.55zm-29.96 2.5l-49.772 86.215c17.87 9.883 38.323 15.666 60.093 16.078V235.14a29.67 29.67 0 0 1-10.32-2.77zm42.77-24.7a29.88 29.88 0 0 1-2.76 10.32l86.2 49.77c9.884-17.87 15.666-38.32 16.078-60.1h-99.528z" fill="#54aec2"/><path d="M971.885 216.967v13.06h-48.14v66h-34v-13.06h20.12v-52.94h-52.08v-13.06h52.08v-13.67l21.22-30.2h-50.28v-13.06h68.06v13.06h-.01l.01.01-25.12 35.75v8.12zm0-79.94v47h-13.94v-33.75h-86.14v33.75h-13.94v-47h18.75v-23h13.5v23h19.33v-23h13.5v23h16.85l4.75-24.03 13.25 2.62-4.23 21.4zm-520.12 152l-7.47 11.25c-11.08-7.36-31.22-22.7-50.1-47.37-18.87 24.67-39 40-50.1 47.37l-7.46-11.25c7.2-4.78 29.56-20.83 49.37-47.6-17.43-26.13-27.72-54.12-30.68-83.4h13.56c3.08 28.2 13.13 52.06 25.3 71.42 13.28-21.1 24.03-47.56 25.97-79.17h-82.8v-13.5h50.08v-22.75h13.5v22.75h50.1v13.5h-17.34c-1.83 32.1-12.34 62.72-31.3 91.16 19.8 26.77 42.17 42.8 49.37 47.6zm55.724-106.5h63.252v13.5H507.5zm2.5-45.75h58.252v13.5H510z"/><path d="M532.366 114.026h13.5v29.5h-13.5zm15.917 29.5h13.5v45.833h-13.5zm-31.833 0h13.5v45.833h-13.5zm-2.418 61.624h50.834v13.5h-50.834zm0 65.917h50.834v13.917h-50.834zm60.834-145.04h15v170h-15z"/><path d="M549.866 205.15h15v81.875h-15zm-35.834 0h13.5v81.875h-13.5zm114.483 69.626h-32.65v-13.5h18.617c-1.103-20.642-4.36-47.435-13.14-69.505l-.718-1.807.353-1.912 8.705-49.026h-21.567v-13.5h37.6l-1.354 7.9-9.75 55.195c9.954 26.102 12.94 57.344 13.678 79.186l.235 6.978zM755.908 144.07h15.917v15.916h-15.917zm0 50h15.917v15.916h-15.917zm27.958-80.044h15v182h-15z"/><path d="M750.276 234.546l-12.82 4.2-13.6-44.38v101.65h-15v-101.03l-20.2 66-12.83-4.2 25.57-72.77h-12.53v-13h20v-34.73l-2.64.46-13.5 2.4-2.35-13.3 46.87-8.3 2.35 13.3-11.74 2.08-4 .7v37.4h20v13h-11.34zm55.876 6.977l1.215 13.445-60.872 5.5-1.215-13.445zm249.682 38.472h58.978v13.938h-58.978zm18.448-165.97h13.5V162.9h-13.5z"/><path d="M1034.116 122.9h13.5v44h-13.5zm14.75 50.22h13.938v122.906h-13.938zm58.977 0h13.938v122.906h-13.938z"/><path d="M1055.834 209.12h58.978v13.938h-58.978zm-6.968-36h72.915v13.938h-72.915z"/><path d="M1055.834 244.62h58.978v13.938h-58.978zm-33.412-61.558l4.637 12.68c36.2-13.233 68.178-29.438 92.204-46.564l-2.827-14.687c-16.765 12.666-46.537 31.2-94.014 48.57z"/><path d="M1131.505 139.792l-3.42-17.77-13.546 2.608 8.5 44.154 13.546-2.607z"/></svg>